<?xml version="1.0" encoding="utf-8"?>
<svg viewBox="2063.3 -1184.5795 313.7188 198.6195" xmlns="http://www.w3.org/2000/svg" xmlns:xlink="http://www.w3.org/1999/xlink" xmlns:bx="https://boxy-svg.com">
  <defs>
    <linearGradient id="gradient-3-0" gradientUnits="userSpaceOnUse" x1="2176.357" y1="-1161.637" x2="2176.357" y2="-1075.2" xlink:href="#gradient-3"/>
    <style bx:fonts="Inter">@import url("https://fonts.googleapis.com/css2?family=Inter:ital,wght@0,100..900&amp;display=swap");</style>
    <linearGradient id="gradient-0" bx:pinned="true">
      <title>main</title>
      <stop offset="0" style="stop-color: rgb(95, 84, 209);"/>
      <stop offset="0.522" style="stop-color: rgb(67, 56, 202);"/>
      <stop offset="1" style="stop-color: rgb(58, 47, 176);"/>
    </linearGradient>
    <linearGradient id="gradient-1" bx:pinned="true">
      <title>dark</title>
      <stop offset="0.103" style="stop-color: rgb(21, 17, 63);"/>
    </linearGradient>
    <linearGradient id="gradient-0-0" gradientUnits="userSpaceOnUse" x1="2175.997" y1="-1209.6" x2="2175.997" y2="-1120.8" gradientTransform="matrix(0, -1.097541, 1.097541, 0, 3454.69911, 1226.608511)" xlink:href="#gradient-0"/>
    <linearGradient id="gradient-0-1" gradientUnits="userSpaceOnUse" x1="2176.357" y1="-1161.637" x2="2176.357" y2="-1075.2" gradientTransform="matrix(-0.009396, -0.999956, 1.679354, 0.00001, 4075.027961, 1055.471585)" xlink:href="#gradient-0"/>
    <linearGradient id="gradient-0-2" gradientUnits="userSpaceOnUse" x1="2218.907" y1="-1050.224" x2="2218.907" y2="-986.279" xlink:href="#gradient-0"/>
    <linearGradient id="gradient-1-0" gradientUnits="userSpaceOnUse" x1="2175.6" y1="-1111.246" x2="2175.6" y2="-1075.2" xlink:href="#gradient-1"/>
  </defs>
  <g transform="matrix(1, 0, 0, 1, 42.549805, 28.020515)" style="">
    <path style="stroke: rgb(0, 0, 0); stroke-width: 0px; fill: url('#gradient-0-0');" d="M 2132.4 -1196.4 C 2124.418 -1186.997 2124.79 -1171.721 2127.6 -1159.711 C 2129.73 -1150.607 2136.121 -1142.508 2143.2 -1136.4 C 2152.386 -1128.473 2176.089 -1120.8 2176.089 -1120.8 C 2176.089 -1120.8 2198.905 -1128.82 2208 -1136.4 C 2215.2 -1142.4 2221.774 -1150.543 2224.079 -1159.691 C 2227.087 -1171.63 2227.88 -1186.941 2220 -1196.4 C 2190 -1168.8 2176.135 -1209.6 2176.135 -1209.6 C 2176.135 -1209.6 2160 -1167.6 2132.4 -1196.4 Z"/>
    <path style="shape-rendering: crispedges; stroke-width: 0px; stroke: url('#gradient-3-0'); fill: url('#gradient-0-1');" d="M 2117.484 -1161.637 C 2117.484 -1161.637 2102.4 -1153.2 2100 -1135.929 C 2097.6 -1108.8 2130 -1094.4 2130 -1094.4 L 2176.019 -1075.2 L 2221.2 -1094.4 C 2221.2 -1094.4 2257.2 -1112.4 2252.4 -1136.4 C 2250 -1153.2 2234.4 -1161.6 2234.4 -1161.6 C 2234.4 -1161.6 2232.897 -1148.026 2221.2 -1135.2 C 2209.93 -1122.841 2188.8 -1113.6 2176.089 -1111.2 C 2162.4 -1113.6 2141.334 -1122.826 2130 -1135.2 C 2118.239 -1148.042 2117.484 -1161.637 2117.484 -1161.637 Z"/>
    <path style="stroke: rgb(0, 0, 0); shape-rendering: crispedges; stroke-width: 0px; fill-opacity: 0.3; fill: url('#gradient-1-0');" d="M 2175.743 -1111.246 C 2175.743 -1111.246 2149.707 -1103.979 2130 -1094.4 C 2145.46 -1087.996 2176.089 -1075.2 2176.089 -1075.2 C 2176.089 -1075.2 2205.43 -1087.667 2221.2 -1094.4 C 2202.514 -1103.979 2175.743 -1111.246 2175.743 -1111.246 Z"/>
  </g>
  <text style="fill: rgb(30, 41, 59); font-family: Inter; font-size: 53px; letter-spacing: 1px; white-space: pre;"><tspan x="2063.3" y="-998.96" style="fill: rgb(51, 65, 85);">Shadow</tspan><tspan style="fill: url('#gradient-0-2'); font-weight: 600;">Self</tspan></text>
</svg>
