<?xml version="1.0" encoding="utf-8"?>
<svg viewBox="-467.4644 257.9415 1134.4062 301.6116" width="1134.406px" height="301.612px" xmlns="http://www.w3.org/2000/svg">
  <defs/>
  <path id="path0" d="M -350.314 258.152 C -357.985 259.304 -360.211 259.693 -363.511 260.46 C -368.175 261.546 -377.113 263.127 -380.124 263.401 C -381.32 263.509 -383.709 263.861 -385.433 264.183 C -389.761 264.99 -394.77 265.35 -405.12 265.598 C -416.623 265.873 -419.718 266.65 -423.705 270.257 C -427.311 273.52 -427.587 274.679 -428.253 289.323 C -428.521 295.215 -428.96 301.922 -429.227 304.227 C -429.496 306.533 -429.811 310.429 -429.927 312.884 C -430.179 318.198 -429.477 317.331 -436.939 321.538 C -459.476 334.24 -471.035 352.796 -466.486 368.971 C -463.106 380.988 -453.833 385.302 -436.719 382.822 C -429.473 381.771 -427.711 381.683 -426.107 382.296 C -420.781 384.33 -419.801 392.829 -423.687 403.283 C -425.169 407.271 -425.125 411.446 -423.569 414.517 C -421.817 417.972 -422.961 419.172 -433.067 424.477 C -434.861 425.419 -437.446 426.779 -438.812 427.498 C -441.991 429.174 -447.077 432.792 -447.845 433.925 C -448.521 434.924 -448.569 438.85 -447.97 444.26 C -446.865 454.229 -446.637 464.513 -446.71 500.971 C -446.769 530.718 -446.168 543.981 -444.706 545.195 C -443.997 545.783 -432.494 524.071 -430.301 519.727 C -425.538 510.293 -420.826 502.649 -419.772 502.649 C -418.494 502.649 -427.272 522.592 -428.035 524.385 C -429.415 527.636 -435.075 541.487 -435.349 542.085 C -438.033 547.936 -438.727 551.64 -437.563 553.903 C -435.982 556.981 -433.247 560.092 -431.722 559.474 C -428.282 558.08 -421.573 555.611 -419.62 553.895 C -418.256 552.698 -416.929 547.767 -416.149 540.998 C -416.03 539.973 -415.677 537.877 -415.364 536.34 C -415.05 534.803 -414.639 532.358 -414.449 530.906 C -414.259 529.454 -413.773 526.52 -413.369 524.385 C -412.964 522.25 -412.637 518.985 -412.135 517.239 C -409.59 508.415 -410.292 507.351 -404.66 500.91 C -399.167 494.628 -398.969 495.176 -398.967 487.912 C -398.962 474.488 -396.569 472.616 -390.216 467.842 C -386.483 465.038 -386.235 466.048 -388.003 476.875 C -388.352 479.011 -388.847 482.294 -389.104 484.173 C -390.162 491.91 -391.16 498.094 -391.596 499.625 C -391.851 500.519 -392.272 502.719 -392.533 504.512 C -392.793 506.305 -393.348 509.24 -393.767 511.033 C -395.273 517.496 -396.43 523.672 -396.745 526.941 C -396.922 528.773 -397.403 532.336 -397.814 534.859 C -399.145 543.032 -399.398 545.688 -398.906 546.283 C -398.036 547.33 -397.358 547.051 -378.798 538.004 C -374.994 536.149 -368.863 533.288 -365.475 531.646 C -354.213 526.183 -349.354 523.851 -331.217 515.198 C -328.399 513.854 -321.901 510.636 -316.778 508.047 C -311.654 505.458 -295.65 497.678 -289.925 494.728 C -284.2 491.778 -247.374 472.961 -243.185 470.514 C -230.383 463.038 -227.819 460.868 -229.056 458.554 C -230.37 456.1 -246.371 447.08 -253.122 444.99 C -256.773 443.857 -265.602 441.561 -267.233 441.318 C -273.821 440.337 -278.207 433.485 -279.846 421.613 C -280.095 419.814 -280.506 417.295 -280.76 416.014 C -281.925 410.141 -282.679 393.608 -282.129 385.984 C -281.745 380.667 -281.972 379.198 -283.224 378.884 C -284.365 378.598 -293.68 381.598 -299.234 384.041 C -303.946 386.114 -308.402 387.487 -309.304 387.144 C -310.6 386.652 -310.675 386.12 -310.412 379.373 C -310.162 372.974 -310.932 366.496 -311.53 363.034 C -312.463 357.636 -311.302 356 -302.499 352.424 C -299.997 351.407 -286.236 343.719 -282.95 341.502 C -273.593 335.188 -266.178 326.422 -265.351 320.695 C -263.467 307.673 -282.735 301.553 -305.411 307.971 C -307.186 308.474 -308.826 308.885 -309.055 308.885 C -309.471 308.885 -311.868 309.608 -319.572 312.061 C -321.793 312.767 -325.11 314.089 -326.944 314.997 C -328.778 315.905 -330.358 316.648 -330.453 316.648 C -331.232 316.648 -343.901 323.956 -349.383 327.569 C -353.14 330.044 -357.243 332.73 -358.503 333.537 C -359.761 334.344 -363.044 336.718 -365.8 338.815 C -383.957 352.629 -393.984 358.449 -389.048 352.311 C -386.989 349.75 -372.184 335.722 -369.309 333.606 C -364.119 329.787 -371.967 329.695 -385.403 333.419 C -395.117 336.11 -398.724 336.767 -408.785 336.825 C -413.943 337.255 -417.865 335.527 -417.865 335.527 C -425.408 331.782 -428.679 323.058 -422.157 324.075 C -415.557 325.105 -399.069 325.649 -391.147 325.099 C -374.362 323.933 -368.21 322.79 -357.455 318.839 C -355.065 317.96 -351.082 316.555 -348.606 315.718 C -346.129 314.88 -341.239 313.193 -337.738 311.968 C -334.237 310.742 -329.806 309.268 -327.892 308.692 C -320.697 306.526 -319.765 305.921 -319.141 303.01 C -318.755 301.21 -319.32 297.235 -320.511 293.36 C -320.905 292.078 -321.324 290.541 -321.443 289.944 C -322.793 283.154 -329.117 268.783 -332.8 264.132 C -336.3 259.713 -343.753 257.168 -350.314 258.152 M -340.533 371.506 C -335.638 373.521 -335.671 383.334 -340.603 392.101 C -345.952 401.608 -347.59 403.663 -351.945 406.338 C -353.354 407.203 -356.428 409.294 -358.776 410.984 C -361.124 412.674 -365.135 415.437 -367.69 417.125 C -374.467 421.602 -376.79 424.349 -378.566 429.988 C -379.252 432.166 -381.188 437.43 -381.559 438.128 C -381.932 438.831 -383.994 440.021 -387.176 441.372 C -400.161 446.887 -400.279 446.991 -404.019 439.479 C -404.019 439.479 -405.853 436.368 -406.442 434.616 C -406.739 433.735 -406.785 432.857 -406.592 431.832 C -406.427 430.956 -405.618 429.519 -405.801 428.949 C -405.977 428.4 -407.817 427.635 -407.817 427.635 C -409.581 426.392 -409.744 425.997 -409.108 423.569 C -407.572 417.7 -408.867 415.41 -414.804 413.717 C -420.406 412.121 -418.372 404.608 -411.641 402.038 C -401.871 398.308 -390.873 390.802 -387.588 385.625 C -384.211 380.302 -382.575 379.203 -373.603 376.232 C -361.581 372.252 -361.067 372.567 -361.04 383.946 L -361.026 389.606 L -360.263 390.106 C -359.737 390.45 -359.18 390.542 -358.477 390.402 C -355.226 389.75 -354.728 389.215 -354.357 385.976 C -353.041 374.472 -347.476 368.647 -340.533 371.506 M -350.455 382.417 C -351.851 383.813 -351.951 385.4 -350.802 388.015 C -350.278 389.212 -349.849 390.69 -349.849 391.302 C -349.849 394.932 -346.581 389.335 -346.208 385.067 C -345.93 381.87 -348.38 380.341 -350.455 382.417" stroke="none" fill-rule="evenodd" style="stroke-width: 0px; fill: rgb(67, 56, 202);" transform="matrix(1, 0, 0, 1, -1.1368683772161603e-13, 0)"/>
  <path d="M -169.08 472.2 Q -174.93 472.2 -180.78 471.3 Q -186.63 470.4 -191.73 469.05 Q -196.83 467.7 -200.28 466.5 L -200.28 452.7 L -189.33 454.35 Q -183.03 456.9 -178.3 457.8 Q -173.58 458.7 -167.88 458.7 Q -161.58 458.7 -157 456.45 Q -152.43 454.2 -149.88 450.15 Q -147.33 446.1 -147.33 440.7 Q -147.33 435.75 -149.5 432.6 Q -151.68 429.45 -155.43 427.5 Q -159.18 425.55 -163.68 424.12 Q -168.18 422.7 -172.98 421.2 Q -179.28 418.95 -185.13 415.72 Q -190.98 412.5 -194.65 407.1 Q -198.33 401.7 -198.33 392.7 Q -198.33 383.85 -194.05 376.87 Q -189.78 369.9 -182.13 365.92 Q -174.48 361.95 -164.13 361.95 Q -157.23 361.95 -149.28 363.75 Q -141.33 365.55 -134.43 368.85 L -134.43 380.1 L -145.68 378.6 Q -150.48 377.1 -155.2 376.27 Q -159.93 375.45 -164.13 375.45 Q -172.83 375.45 -177.93 379.72 Q -183.03 384 -183.03 390.9 Q -183.03 396.9 -179.2 400.2 Q -175.38 403.5 -169.53 405.52 Q -163.68 407.55 -157.53 409.8 Q -150.48 412.2 -144.7 415.5 Q -138.93 418.8 -135.4 424.2 Q -131.88 429.6 -131.88 438.45 Q -131.88 448.05 -136.38 455.7 Q -140.88 463.35 -149.13 467.77 Q -157.38 472.2 -169.08 472.2 Z M -147.33 376.5 L -134.43 380.1 L -134.43 393.75 L -141.63 393.75 Q -142.98 393.75 -143.88 393 Q -144.78 392.25 -145.08 390.75 Z M -187.38 456.3 L -200.28 452.7 L -200.28 439.2 L -193.08 439.2 Q -191.73 439.2 -190.75 439.87 Q -189.78 440.55 -189.63 442.2 Z M -105.14 471 L -105.14 360.15 L -90.14 360.15 L -90.14 404.25 Q -85.34 399.45 -79.57 396.45 Q -73.79 393.45 -66.29 393.45 Q -57.89 393.45 -52.27 397.05 Q -46.64 400.65 -43.64 407.25 Q -40.64 413.85 -40.64 422.4 L -40.64 471 L -55.79 471 L -55.79 422.4 Q -55.79 414.3 -59.47 409.8 Q -63.14 405.3 -70.79 405.3 Q -76.34 405.3 -81.22 407.92 Q -86.09 410.55 -90.14 415.2 L -90.14 471 Z M -44.99 471 L -43.19 458.25 L -32.69 460.5 Q -31.34 460.8 -30.59 461.7 Q -29.84 462.6 -29.84 464.1 L -29.84 471 Z M -116.09 471 L -116.09 464.1 Q -116.09 462.6 -115.34 461.7 Q -114.59 460.8 -113.09 460.5 L -102.74 458.25 L -100.94 471 Z M -100.94 360.15 L -102.74 372.9 L -113.09 370.65 Q -114.59 370.35 -115.34 369.45 Q -116.09 368.55 -116.09 367.05 L -116.09 360.15 Z M -94.49 471 L -92.69 458.25 L -82.19 460.5 Q -80.84 460.8 -80.09 461.7 Q -79.34 462.6 -79.34 464.1 L -79.34 471 Z M 4.1 472.2 Q -2.05 472.2 -7 469.87 Q -11.95 467.55 -14.8 462.97 Q -17.65 458.4 -17.65 451.8 Q -17.65 447.3 -15.18 443.1 Q -12.7 438.9 -7.3 435.6 Q -1.75 432.45 7.1 430.27 Q 15.95 428.1 29 427.8 L 29 422.4 Q 29 413.85 25.32 409.57 Q 21.65 405.3 14.75 405.3 Q 10.7 405.3 6.57 407.25 Q 2.45 409.2 -1 411.07 Q -4.45 412.95 -6.7 412.95 Q -8.35 412.95 -9.4 412.12 Q -10.45 411.3 -11.2 410.25 L -13.9 405.45 Q -7.45 399.3 0.05 396.3 Q 7.55 393.3 16.55 393.3 Q 25.25 393.3 31.25 396.9 Q 37.25 400.5 40.47 407.1 Q 43.7 413.7 43.7 422.4 L 43.7 471 L 36.95 471 Q 34.85 471 33.57 470.32 Q 32.3 469.65 31.7 467.55 L 30.2 460.95 Q 24.2 466.35 18.27 469.27 Q 12.35 472.2 4.1 472.2 Z M 8.6 461.7 Q 14.9 461.7 19.7 459.22 Q 24.5 456.75 29 452.1 L 29 437.25 Q 21.5 437.4 15.57 438.3 Q 9.65 439.2 5.45 440.85 Q 1.25 442.5 -0.93 444.97 Q -3.1 447.45 -3.1 451.05 Q -3.1 456.75 0.2 459.22 Q 3.5 461.7 8.6 461.7 Z M 39.35 471 L 41.15 458.25 L 51.65 460.5 Q 53 460.8 53.82 461.7 Q 54.65 462.6 54.65 464.1 L 54.65 471 Z M 95.19 472.05 Q 86.04 472.05 79.59 467.17 Q 73.14 462.3 69.77 453.52 Q 66.39 444.75 66.39 433.05 Q 66.39 421.95 70.37 412.95 Q 74.34 403.95 81.77 398.62 Q 89.19 393.3 99.39 393.3 Q 106.29 393.3 111.09 395.55 Q 115.89 397.8 119.64 401.85 L 119.64 360.15 L 134.79 360.15 L 134.79 471 L 125.64 471 Q 122.49 471 121.74 468 L 120.39 459.3 Q 115.59 465.15 109.37 468.6 Q 103.14 472.05 95.19 472.05 Z M 100.14 460.05 Q 106.44 460.05 111.09 457.27 Q 115.74 454.5 119.64 449.25 L 119.64 413.1 Q 116.19 408.6 112.07 406.72 Q 107.94 404.85 102.84 404.85 Q 96.09 404.85 91.44 408.15 Q 86.79 411.45 84.39 417.75 Q 81.99 424.05 81.99 433.05 Q 81.99 446.25 86.34 453.15 Q 90.69 460.05 100.14 460.05 Z M 123.99 360.15 L 122.19 372.9 L 111.69 370.65 Q 110.34 370.35 109.59 369.45 Q 108.84 368.55 108.84 367.05 L 108.84 360.15 Z M 130.44 471 L 132.24 458.25 L 142.74 460.5 Q 144.09 460.8 144.84 461.7 Q 145.59 462.6 145.59 464.1 L 145.59 471 Z M 195.13 393.45 Q 206.53 393.45 214.71 398.32 Q 222.88 403.2 227.31 412.05 Q 231.73 420.9 231.73 432.75 Q 231.73 444.45 227.31 453.37 Q 222.88 462.3 214.71 467.17 Q 206.53 472.05 195.13 472.05 Q 183.88 472.05 175.56 467.17 Q 167.23 462.3 162.66 453.37 Q 158.08 444.45 158.08 432.75 Q 158.08 420.9 162.66 412.05 Q 167.23 403.2 175.56 398.32 Q 183.88 393.45 195.13 393.45 Z M 195.13 460.5 Q 205.78 460.5 211.03 453.3 Q 216.28 446.1 216.28 432.9 Q 216.28 423.9 213.96 417.75 Q 211.63 411.6 206.91 408.37 Q 202.18 405.15 195.13 405.15 Q 187.78 405.15 182.98 408.45 Q 178.18 411.75 175.93 417.97 Q 173.68 424.2 173.68 432.9 Q 173.68 445.65 178.93 453.07 Q 184.18 460.5 195.13 460.5 Z M 274.53 471 L 250.08 394.65 L 261.93 394.65 Q 265.68 394.65 266.43 397.65 L 279.93 444.3 Q 280.53 447.15 281.13 449.85 Q 281.73 452.55 282.03 455.25 Q 282.48 453.6 283 451.72 Q 283.53 449.85 284.13 447.9 Q 284.73 445.95 285.33 444.3 L 300.33 397.5 Q 300.63 396.15 301.68 395.32 Q 302.73 394.5 304.23 394.5 L 310.98 394.5 Q 314.28 394.5 315.18 397.5 L 329.73 444.3 Q 330.33 445.8 330.85 447.82 Q 331.38 449.85 331.9 451.72 Q 332.43 453.6 332.73 455.25 Q 333.03 453.6 333.4 451.65 Q 333.78 449.7 334.23 447.75 Q 334.68 445.8 335.13 444.3 L 348.93 397.65 Q 349.23 396.45 350.35 395.55 Q 351.48 394.65 353.13 394.65 L 364.53 394.65 L 339.93 471 L 327.93 471 Q 325.98 471 324.93 468.15 L 309.18 418.8 Q 308.58 417 308.13 415.05 Q 307.68 413.1 307.38 411.3 Q 307.08 412.95 306.63 414.82 Q 306.18 416.7 305.43 418.95 L 289.38 468.15 Q 288.48 471 285.93 471 Z M 259.38 398.7 L 259.38 394.65 L 270.48 394.65 L 270.48 398.7 Z M 346.23 398.7 L 346.23 394.65 L 357.48 394.65 L 357.48 398.7 Z M 259.23 394.65 L 257.43 407.4 L 247.08 405.15 Q 245.58 404.85 244.83 403.95 Q 244.08 403.05 244.08 401.55 L 244.08 394.65 Z M 278.88 394.65 L 278.88 401.55 Q 278.88 403.05 278.13 403.95 Q 277.38 404.85 275.88 405.15 L 265.38 407.4 L 263.73 394.65 Z M 350.88 394.65 L 349.23 407.4 L 338.73 405.15 Q 337.23 404.85 336.48 403.95 Q 335.73 403.05 335.73 401.55 L 335.73 394.65 Z M 370.53 394.65 L 370.53 401.55 Q 370.53 403.05 369.78 403.95 Q 369.03 404.85 367.53 405.15 L 357.18 407.4 L 355.38 394.65 Z" style="fill: rgb(203, 213, 225);"/>
  <path d="M 417.82 472.2 Q 411.67 472.2 405.9 471.45 Q 400.12 470.7 394.95 469.42 Q 389.77 468.15 385.12 466.5 L 385.12 451.65 L 394.72 450.6 Q 401.17 453.6 406.95 454.57 Q 412.72 455.55 418.87 455.55 Q 424.42 455.55 428.32 453.75 Q 432.22 451.95 434.4 448.42 Q 436.57 444.9 436.57 440.1 Q 436.57 435.6 434.4 432.82 Q 432.22 430.05 428.55 428.25 Q 424.87 426.45 420.52 425.17 Q 416.17 423.9 411.52 422.4 Q 405.07 420.15 399.3 416.77 Q 393.52 413.4 390.07 407.7 Q 386.62 402 386.62 392.85 Q 386.62 384 391.12 376.8 Q 395.62 369.6 403.65 365.4 Q 411.67 361.2 422.47 361.2 Q 430.12 361.2 438.45 363.45 Q 446.77 365.7 453.22 369.75 L 453.22 381.75 L 442.42 381.6 Q 437.77 379.95 432.9 378.9 Q 428.02 377.85 422.62 377.85 Q 414.67 377.85 410.32 381.52 Q 405.97 385.2 405.97 391.2 Q 405.97 396.45 409.8 399.45 Q 413.62 402.45 419.4 404.32 Q 425.17 406.2 431.02 408.3 Q 437.92 410.7 443.62 414.07 Q 449.32 417.45 452.62 422.92 Q 455.92 428.4 455.92 437.25 Q 455.92 447.3 451.35 455.25 Q 446.77 463.2 438.22 467.7 Q 429.67 472.2 417.82 472.2 Z M 438.67 378.3 L 453.22 381.75 L 453.22 394.95 L 445.42 394.95 Q 443.47 394.95 442.42 393.82 Q 441.37 392.7 440.92 390.6 Z M 399.67 455.1 L 385.12 451.65 L 385.12 438.45 L 392.92 438.45 Q 394.87 438.45 396 439.57 Q 397.12 440.7 397.42 442.8 Z M 509.21 472.2 Q 497.66 472.2 489.11 467.02 Q 480.56 461.85 475.83 452.47 Q 471.11 443.1 471.11 430.8 Q 471.11 420 475.76 411.37 Q 480.41 402.75 488.81 397.72 Q 497.21 392.7 508.31 392.7 Q 518.36 392.7 525.93 396.97 Q 533.51 401.25 537.63 409.05 Q 541.76 416.85 541.76 427.65 Q 541.76 431.7 541.01 433.27 Q 540.26 434.85 537.41 434.85 L 490.16 434.85 Q 490.16 435.3 490.16 435.75 Q 490.16 436.2 490.31 436.65 Q 491.51 447.15 496.83 452.4 Q 502.16 457.65 510.86 457.65 Q 514.91 457.65 519.03 456 Q 523.16 454.35 526.61 452.62 Q 530.06 450.9 532.16 450.9 Q 534.26 450.9 535.61 452.55 L 541.16 459.45 Q 537.11 464.1 531.78 466.95 Q 526.46 469.8 520.68 471 Q 514.91 472.2 509.21 472.2 Z M 490.46 423.6 L 524.81 423.6 Q 524.81 416.1 520.76 411.15 Q 516.71 406.2 508.76 406.2 Q 500.81 406.2 496.23 410.7 Q 491.66 415.2 490.46 423.6 Z M 565.96 471 L 565.96 359.4 L 584.86 359.4 L 584.86 471 Z M 554.71 471 L 554.71 462.3 Q 554.71 460.2 555.83 459.15 Q 556.96 458.1 559.06 457.65 L 567.61 455.85 L 569.56 471 Z M 581.26 471 L 583.21 455.85 L 591.76 457.65 Q 593.86 458.1 594.98 459.15 Q 596.11 460.2 596.11 462.3 L 596.11 471 Z M 569.56 359.4 L 567.61 374.55 L 559.06 372.75 Q 556.96 372.3 555.83 371.25 Q 554.71 370.2 554.71 368.1 L 554.71 359.4 Z M 619.7 471 L 619.7 408 L 613.25 406.95 Q 611.15 406.5 609.73 405.45 Q 608.3 404.4 608.3 402.3 L 608.3 394.65 L 619.7 394.65 L 619.7 388.95 Q 619.7 375.75 627.58 368.17 Q 635.45 360.6 648.8 360.6 Q 651.5 360.6 653.9 360.97 Q 656.3 361.35 658.7 362.1 L 658.25 371.4 Q 658.1 373.2 656.9 373.95 Q 655.7 374.7 654.5 374.7 Q 653.9 374.7 653.3 374.7 Q 652.7 374.7 651.95 374.7 Q 645.05 374.7 641.6 378.07 Q 638.15 381.45 638.15 389.7 L 638.15 394.65 L 657.95 394.65 L 657.95 407.85 L 638.75 407.85 L 638.75 471 Z M 608.45 471 L 608.45 462.3 Q 608.45 460.2 609.65 459.15 Q 610.85 458.1 612.8 457.65 L 621.5 455.85 L 623.3 471 Z M 635.15 471 L 637.1 455.85 L 645.65 457.65 Q 647.75 458.1 648.88 459.15 Q 650 460.2 650 462.3 L 650 471 Z" style="fill: rgb(67, 56, 202);"/>
</svg>