<svg xmlns="http://www.w3.org/2000/svg" viewBox="2063.3 -1184.579 313.719 198.62" xmlns:v="https://vecta.io/nano"><defs><linearGradient id="A" x1="2127.114" y1="-1161.637" x2="2224.575" y2="-1161.637" href="#B"/><linearGradient id="B" gradientUnits="userSpaceOnUse"><stop offset="0" stop-color="#5f54d1"/><stop offset=".522" stop-color="#4338ca"/><stop offset="1" stop-color="#3a2fb0"/></linearGradient><linearGradient id="C" x1="2176.357" y1="-1161.637" x2="2176.357" y2="-1075.2" gradientTransform="matrix(-0.009396, -0.999956, 1.679354, 0.00001, 4075.027961, 1055.471585)" href="#B"/><linearGradient id="D" gradientUnits="userSpaceOnUse" x1="2176.357" y1="-1161.637" x2="2176.357" y2="-1075.2"/><linearGradient id="E" x1="2175.6" y1="-1111.246" x2="2175.6" y2="-1075.2" gradientUnits="userSpaceOnUse"><stop offset=".103" stop-color="#15113f"/></linearGradient><linearGradient id="F" x1="2218.907" y1="-1050.224" x2="2218.907" y2="-986.279" href="#B"/></defs><g transform="translate(42.55 28.021)" stroke-width="0"><path d="M2132.4-1196.4c-7.982 9.403-7.61 24.679-4.8 36.689 2.13 9.104 8.521 17.203 15.6 23.311 9.186 7.927 32.889 15.6 32.889 15.6s22.816-8.02 31.911-15.6c7.2-6 13.774-14.143 16.079-23.291 3.008-11.939 3.801-27.25-4.079-36.709-30 27.6-43.865-13.2-43.865-13.2s-16.135 42-43.735 13.2z" stroke="#000" fill="url(#A)"/><path d="M 2117.484 -1161.637 C 2117.484 -1161.637 2102.4 -1153.2 2100 -1135.929 C 2097.6 -1108.8 2130 -1094.4 2130 -1094.4 L 2176.019 -1075.2 L 2221.2 -1094.4 C 2221.2 -1094.4 2257.2 -1112.4 2252.4 -1136.4 C 2250 -1153.2 2234.4 -1161.6 2234.4 -1161.6 C 2234.4 -1161.6 2232.897 -1148.026 2221.2 -1135.2 C 2209.93 -1122.841 2188.8 -1113.6 2176.089 -1111.2 C 2162.4 -1113.6 2141.334 -1122.826 2130 -1135.2 C 2118.239 -1148.042 2117.484 -1161.637 2117.484 -1161.637 Z" shape-rendering="crispedges" stroke="url(#D)" fill="url(#C)"/><path d="M2175.743-1111.246s-26.036 7.267-45.743 16.846l46.089 19.2 45.111-19.2c-18.686-9.579-45.457-16.846-45.457-16.846z" stroke="#000" shape-rendering="crispedges" fill-opacity=".3" fill="url(#E)"/></g><path d="M2080.302-998.287q-6.263 0-9.963-2.95-3.701-2.976-4.037-7.815h5.046q.207 2.174 1.475 3.597 1.268 1.397 3.235 2.096 1.993.673 4.244.673 2.614 0 4.684-.854 2.096-.854 3.313-2.407 1.216-1.553 1.216-3.597 0-1.863-1.061-3.028-1.035-1.165-2.769-1.915-1.734-.75-3.804-1.32l-4.658-1.32q-4.658-1.32-7.246-3.778-2.588-2.458-2.588-6.289 0-3.261 1.76-5.693 1.76-2.458 4.762-3.804 3.002-1.346 6.729-1.346 3.804 0 6.729 1.346 2.924 1.346 4.606 3.675 1.708 2.303 1.811 5.228h-4.814q-.336-2.821-2.691-4.348-2.355-1.553-5.797-1.553-3.752 0-6.03 1.786-2.277 1.76-2.277 4.477 0 2.018 1.242 3.261 1.268 1.216 2.976 1.915 1.734.673 3.131 1.061l3.856 1.061q1.553.414 3.416 1.139 1.889.725 3.597 1.941 1.708 1.191 2.795 3.054 1.113 1.837 1.113 4.529 0 3.157-1.656 5.693-1.63 2.536-4.762 4.011-3.131 1.475-7.582 1.475zm26.75-18.012v17.339h-4.658v-38.56h4.658v14.648q1.423-2.899 3.623-4.141 2.226-1.242 5.072-1.242 4.399 0 7.091 2.717 2.717 2.717 2.717 8.204v18.374h-4.684v-17.986q0-3.338-1.76-5.227-1.734-1.889-4.762-1.889-3.131 0-5.228 2.044-2.07 2.019-2.07 5.719zm35.781 18.012q-2.743 0-4.995-1.035-2.226-1.035-3.545-3.028-1.32-1.993-1.32-4.839 0-2.484.983-4.037.983-1.553 2.614-2.433 1.656-.906 3.649-1.346 1.993-.44 4.011-.699 2.588-.336 4.218-.518 1.63-.181 2.407-.621.802-.44.802-1.501v-.155q0-2.691-1.527-4.167-1.527-1.501-4.529-1.501-3.131 0-4.891 1.372-1.76 1.346-2.433 2.873l-4.477-1.475q1.113-2.64 3.002-4.115 1.889-1.501 4.166-2.122 2.277-.621 4.503-.621 1.449 0 3.287.362 1.863.336 3.571 1.371 1.734 1.035 2.847 3.08 1.139 2.019 1.139 5.409v19.073h-4.581v-3.934h-.311q-.492 1.009-1.579 2.096-1.087 1.061-2.821 1.786-1.734.725-4.192.725zm.802-4.115q2.588 0 4.374-1.009 1.786-1.009 2.717-2.614.932-1.63.932-3.39v-4.011q-.285.336-1.242.621-.957.259-2.2.466-1.216.207-2.381.362-1.139.129-1.811.207-1.682.207-3.157.725-1.449.492-2.329 1.475-.88.957-.88 2.614 0 2.251 1.682 3.416 1.708 1.139 4.296 1.139zm32.702 4.063q-3.597 0-6.366-1.837-2.769-1.837-4.322-5.202-1.553-3.364-1.553-7.971 0-4.581 1.553-7.919 1.579-3.364 4.348-5.176 2.769-1.812 6.366-1.812 2.821 0 4.477.932 1.656.932 2.536 2.122.906 1.165 1.372 1.941h.362v-14.259h4.658v38.56h-4.503v-4.477h-.518q-.466.802-1.398 2.019-.906 1.19-2.588 2.148-1.656.932-4.425.932zm.699-4.166q3.934 0 6.03-3.028 2.096-3.028 2.096-7.867 0-4.788-2.07-7.738-2.044-2.95-6.056-2.95-2.743 0-4.581 1.423-1.811 1.423-2.717 3.856-.906 2.407-.906 5.409 0 3.028.906 5.512.932 2.458 2.769 3.933 1.837 1.449 4.529 1.449zm33.685 4.166q-3.934 0-6.91-1.863-2.95-1.863-4.606-5.227-1.656-3.364-1.656-7.816 0-4.529 1.656-7.893 1.656-3.39 4.606-5.253 2.976-1.863 6.91-1.863 3.959 0 6.936 1.863 2.976 1.863 4.632 5.254 1.656 3.364 1.656 7.893 0 4.451-1.656 7.816-1.656 3.364-4.632 5.227-2.976 1.863-6.936 1.863zm0-4.166q2.924 0 4.814-1.501 1.889-1.501 2.795-3.934.906-2.458.906-5.305 0-2.872-.906-5.331-.906-2.484-2.795-3.985-1.889-1.527-4.814-1.527-2.898 0-4.762 1.527-1.863 1.501-2.769 3.96-.906 2.458-.906 5.357 0 2.847.906 5.305.906 2.433 2.769 3.934 1.863 1.501 4.762 1.501zm26.542 3.545l-8.773-28.933h4.943l3.52 12.629q.621 2.251 1.346 5.072.725 2.795 1.423 6.237.699-3.312 1.372-6.107.699-2.795 1.372-5.202l3.468-12.629h4.969l3.416 12.629q.621 2.329 1.294 5.124.699 2.769 1.372 6.107.725-3.312 1.423-6.082.725-2.795 1.372-5.15l3.519-12.629h4.943l-8.773 28.933h-4.632l-3.752-13.095q-.725-2.484-1.398-5.124-.647-2.64-1.32-5.409-.647 2.769-1.346 5.435-.673 2.665-1.372 5.098l-3.752 13.095z" fill="#cbd5e1"/><g fill="url(#F)"><path d="M2288.469-998.365q-6.729 0-10.74-3.105-3.985-3.105-4.218-8.825h6.806q.233 3.054 2.536 4.555 2.303 1.475 5.564 1.475 3.416 0 5.564-1.527 2.174-1.553 2.174-4.037 0-2.251-1.915-3.39-1.915-1.165-5.046-1.967l-4.374-1.139q-4.839-1.242-7.557-3.752-2.691-2.51-2.691-6.599 0-3.416 1.837-5.952 1.837-2.562 5.021-3.985 3.183-1.423 7.22-1.423 4.115 0 7.194 1.423 3.106 1.423 4.865 3.934 1.76 2.51 1.837 5.719h-6.703q-.259-2.458-2.226-3.83-1.941-1.372-5.072-1.372-3.261 0-5.124 1.449-1.863 1.423-1.863 3.623 0 1.63.983 2.666 1.009 1.009 2.51 1.63 1.527.621 3.08 1.009l3.597.932q2.847.699 5.435 2.019 2.614 1.294 4.244 3.494 1.656 2.2 1.656 5.564 0 3.39-1.734 5.978-1.734 2.562-4.995 4.011-3.261 1.423-7.867 1.423z"/><path d="M2322.878-998.365q-4.374 0-7.531-1.837-3.131-1.837-4.839-5.176-1.682-3.338-1.682-7.867 0-4.451 1.656-7.815 1.682-3.39 4.736-5.279 3.08-1.915 7.22-1.915 3.52 0 6.521 1.553 3.028 1.527 4.865 4.762 1.837 3.209 1.837 8.281v2.122h-20.134q.129 3.856 2.148 5.875 2.044 2.019 5.279 2.019 2.226 0 3.804-.957 1.604-.957 2.277-2.795l6.185 1.268q-1.035 3.494-4.296 5.642-3.235 2.122-8.048 2.122zm-7.324-17.753h13.561q-.311-3.106-1.993-4.969-1.656-1.889-4.658-1.889-3.08 0-4.891 1.993-1.786 1.967-2.019 4.865z"/><path d="M2349.162-1037.52v38.56h-6.729v-38.56z"/><path d="M2372.521-1027.893v5.279h-6.263v23.653h-6.703v-23.653h-5.305v-5.279h5.305v-2.769q0-2.872 1.216-4.788 1.216-1.941 3.235-2.898 2.044-.983 4.529-.983 1.786 0 3.157.285 1.372.285 2.019.517l-1.372 5.228q-.44-.129-1.087-.259-.621-.155-1.475-.155-1.889 0-2.717.932-.802.932-.802 2.64v2.252z"/></g></svg>