<svg viewBox="2067.651 -1177.854 613.759 134.4" xmlns="http://www.w3.org/2000/svg" xmlns:xlink="http://www.w3.org/1999/xlink"><defs><linearGradient id="b" x1="2127.114" y1="-1161.637" x2="2224.575" y2="-1161.637" xlink:href="#a"/><linearGradient id="a" gradientUnits="userSpaceOnUse"><stop offset="0" stop-color="#5f54d1"/><stop offset=".522" stop-color="#4338ca"/><stop offset="1" stop-color="#3a2fb0"/></linearGradient><linearGradient id="d" x1="2176.357" y1="-1161.637" x2="2176.357" y2="-1075.2" gradientTransform="matrix(-.0094 -.99996 1.67935 .00001 4075.028 1055.472)" xlink:href="#a"/><linearGradient id="c" gradientUnits="userSpaceOnUse" x1="2176.357" y1="-1161.637" x2="2176.357" y2="-1075.2"/><linearGradient id="e" x1="2175.6" y1="-1111.246" x2="2175.6" y2="-1075.2" gradientUnits="userSpaceOnUse"><stop offset=".103" stop-color="#15113f"/></linearGradient><linearGradient id="f" x1="2218.907" y1="-1050.224" x2="2218.907" y2="-986.279" xlink:href="#a"/></defs><g stroke-width="0"><path d="M2132.4-1196.4c-7.982 9.403-7.61 24.679-4.8 36.689 2.13 9.104 8.521 17.203 15.6 23.311 9.186 7.927 32.889 15.6 32.889 15.6s22.816-8.02 31.911-15.6c7.2-6 13.774-14.143 16.079-23.291 3.008-11.939 3.801-27.25-4.079-36.709-30 27.6-43.865-13.2-43.865-13.2s-16.135 42-43.735 13.2z" fill="url(#b)" transform="translate(-32.222 31.746)"/><path d="M2117.484-1161.637s-15.084 8.437-17.484 25.708c-2.4 27.129 30 41.529 30 41.529l46.019 19.2 45.181-19.2s36-18 31.2-42c-2.4-16.8-18-25.2-18-25.2s-1.503 13.574-13.2 26.4c-11.27 12.359-32.4 21.6-45.111 24-13.689-2.4-34.755-11.626-46.089-24-11.761-12.842-12.516-26.437-12.516-26.437z" shape-rendering="crispedges" fill="url(#d)" transform="translate(-32.222 31.746)"/><path d="M2175.743-1111.246s-26.036 7.267-45.743 16.846l46.089 19.2 45.111-19.2c-18.686-9.579-45.457-16.846-45.457-16.846z" shape-rendering="crispedges" fill-opacity=".3" fill="url(#e)" transform="translate(-32.222 31.746)"/></g><path d="M2256.466-1080.932c-6.046 0-10.857-1.425-14.429-4.273-3.574-2.873-5.522-6.646-5.847-11.318h7.308c.2 2.098.913 3.834 2.136 5.209 1.224 1.349 2.787 2.361 4.685 3.036 1.925.649 3.973.975 6.147.975 2.525 0 4.785-.414 6.784-1.237 2.023-.825 3.624-1.987 4.798-3.486 1.175-1.501 1.761-3.237 1.761-5.209 0-1.799-.513-3.262-1.537-4.387-.999-1.125-2.336-2.049-4.01-2.773a41.844 41.844 0 0 0-5.509-1.911l-6.746-1.912c-4.497-1.275-7.997-3.099-10.494-5.472-2.498-2.374-3.749-5.409-3.749-9.109 0-3.148.85-5.896 2.55-8.244 1.698-2.374 3.999-4.21 6.896-5.509 2.898-1.302 6.147-1.95 9.746-1.95 3.673 0 6.921.648 9.745 1.95 2.823 1.299 5.048 3.072 6.671 5.322 1.649 2.223 2.523 4.748 2.623 7.571h-6.972c-.324-2.724-1.623-4.823-3.898-6.297-2.273-1.5-5.071-2.249-8.396-2.249-3.622 0-6.533.862-8.733 2.587-2.198 1.698-3.297 3.86-3.297 6.484 0 1.947.6 3.522 1.798 4.722 1.224 1.173 2.661 2.099 4.311 2.774 1.674.649 3.186 1.161 4.534 1.537l5.585 1.536c1.498.4 3.148.949 4.947 1.65a23.447 23.447 0 0 1 5.21 2.811c1.649 1.15 2.998 2.624 4.048 4.423 1.074 1.772 1.612 3.96 1.612 6.56 0 3.047-.8 5.795-2.399 8.244-1.574 2.449-3.873 4.384-6.897 5.81-3.022 1.424-6.683 2.136-10.981 2.136l-.001-.001zm38.742-26.087v25.112h-6.746v-55.846h6.746v21.215c1.375-2.8 3.123-4.799 5.247-5.999 2.15-1.198 4.599-1.798 7.346-1.798 4.248 0 7.67 1.311 10.27 3.935 2.623 2.623 3.935 6.584 3.935 11.882v26.611h-6.784v-26.049c0-3.224-.85-5.747-2.548-7.57-1.675-1.825-3.973-2.737-6.897-2.737-3.024 0-5.547.987-7.573 2.961-1.998 1.95-2.997 4.71-2.997 8.283h.001zm51.821 26.087c-2.648 0-5.06-.5-7.234-1.5-2.149-.999-3.861-2.461-5.134-4.385-1.274-1.925-1.912-4.261-1.912-7.008 0-2.398.475-4.348 1.424-5.847a10.041 10.041 0 0 1 3.785-3.524c1.6-.875 3.36-1.524 5.285-1.949a65.413 65.413 0 0 1 5.81-1.013c2.498-.323 4.535-.575 6.109-.749 1.574-.176 2.736-.475 3.486-.9.775-.425 1.161-1.149 1.161-2.173v-.225c0-2.599-.737-4.61-2.211-6.036-1.475-1.449-3.662-2.174-6.559-2.174-3.023 0-5.385.663-7.085 1.988-1.698 1.299-2.873 2.686-3.523 4.16l-6.484-2.135c1.074-2.55 2.525-4.536 4.348-5.96a16.619 16.619 0 0 1 6.034-3.073c2.198-.6 4.372-.9 6.521-.9 1.4 0 2.987.174 4.761.524 1.798.325 3.522.986 5.171 1.986 1.675 1 3.049 2.486 4.124 4.461 1.1 1.949 1.65 4.56 1.65 7.834v27.623h-6.635v-5.697h-.451c-.475.973-1.236 1.985-2.286 3.035-1.05 1.024-2.412 1.886-4.086 2.587-1.674.699-3.698 1.05-6.072 1.05h.003zm1.163-5.96c2.497 0 4.609-.488 6.334-1.461 1.724-.976 3.035-2.237 3.935-3.786.899-1.575 1.35-3.211 1.35-4.91v-5.809c-.275.325-.875.624-1.799.899-.924.249-1.986.476-3.186.675-1.175.2-2.323.374-3.448.525-1.1.124-1.975.224-2.623.3a21.695 21.695 0 0 0-4.573 1.049c-1.398.475-2.523 1.186-3.373 2.137-.85.923-1.274 2.185-1.274 3.785 0 2.173.812 3.823 2.435 4.948 1.65 1.098 3.724 1.65 6.223 1.65l-.001-.002zm47.361 5.884c-3.473 0-6.546-.888-9.219-2.66-2.674-1.774-4.761-4.286-6.26-7.534-1.499-3.249-2.249-7.097-2.249-11.545 0-4.423.75-8.247 2.249-11.468 1.525-3.249 3.624-5.747 6.297-7.497 2.674-1.749 5.747-2.624 9.22-2.624 2.725 0 4.885.449 6.484 1.35 1.599.898 2.822 1.922 3.673 3.072.875 1.125 1.536 2.061 1.987 2.812h.525v-20.651h6.745v55.846h-6.521v-6.484h-.751c-.45.774-1.125 1.748-2.024 2.924-.875 1.148-2.125 2.185-3.749 3.111-1.599.9-3.735 1.349-6.409 1.349l.002-.001zm1.013-6.033c3.799 0 6.71-1.463 8.733-4.385 2.023-2.925 3.035-6.722 3.035-11.394 0-4.624-.999-8.36-2.997-11.208-1.975-2.848-4.897-4.271-8.771-4.271-2.649 0-4.861.686-6.635 2.06-1.748 1.373-3.06 3.235-3.935 5.584-.875 2.323-1.312 4.935-1.312 7.835 0 2.923.437 5.585 1.312 7.982.9 2.373 2.237 4.272 4.01 5.697 1.774 1.398 3.96 2.099 6.56 2.099v.001zm48.786 6.033c-3.799 0-7.135-.899-10.008-2.698-2.849-1.799-5.072-4.324-6.671-7.57-1.599-3.249-2.399-7.021-2.399-11.32 0-4.374.8-8.184 2.399-11.432 1.599-3.272 3.822-5.809 6.671-7.608 2.873-1.798 6.209-2.697 10.008-2.697 3.821 0 7.17.899 10.045 2.697 2.873 1.799 5.109 4.336 6.708 7.61 1.599 3.247 2.399 7.057 2.399 11.431 0 4.298-.8 8.07-2.399 11.32-1.599 3.248-3.835 5.771-6.708 7.571-2.873 1.799-6.222 2.697-10.045 2.697v-.001zm0-6.033c2.822 0 5.146-.726 6.971-2.174 1.823-1.449 3.173-3.348 4.048-5.697.875-2.374 1.312-4.936 1.312-7.684 0-2.774-.437-5.347-1.312-7.721-.875-2.399-2.225-4.324-4.048-5.772-1.822-1.473-4.148-2.21-6.971-2.21-2.799 0-5.097.737-6.897 2.21-1.799 1.448-3.136 3.36-4.011 5.736-.875 2.372-1.312 4.959-1.312 7.758 0 2.749.437 5.31 1.312 7.684.875 2.349 2.212 4.248 4.011 5.698 1.798 1.448 4.097 2.173 6.897 2.173v-.001zm38.441 5.134-12.707-41.904h7.16l5.097 18.291c.6 2.172 1.25 4.621 1.949 7.346.7 2.697 1.388 5.709 2.061 9.033a320.823 320.823 0 0 1 1.988-8.845c.674-2.7 1.337-5.211 1.986-7.534l5.023-18.291h7.197l4.947 18.291c.6 2.248 1.224 4.722 1.874 7.421a188.375 188.375 0 0 1 1.987 8.845c.7-3.198 1.388-6.135 2.061-8.809.699-2.7 1.363-5.185 1.988-7.459l5.096-18.29h7.159l-12.706 41.903h-6.708l-5.434-18.965c-.7-2.398-1.375-4.872-2.025-7.421-.624-2.549-1.262-5.161-1.912-7.833a306.064 306.064 0 0 1-1.949 7.871 242.985 242.985 0 0 1-1.987 7.383l-5.434 18.965-6.711.002z" fill="#cbd5e1"/><g fill="url(#f)" transform="matrix(1.4483 0 0 1.4483 -756.427 364.881)"><path d="M2288.469-998.365q-6.729 0-10.74-3.105-3.985-3.105-4.218-8.825h6.806q.233 3.054 2.536 4.555 2.303 1.475 5.564 1.475 3.416 0 5.564-1.527 2.174-1.553 2.174-4.037 0-2.251-1.915-3.39-1.915-1.165-5.046-1.967l-4.374-1.139q-4.839-1.242-7.557-3.752-2.691-2.51-2.691-6.599 0-3.416 1.837-5.952 1.837-2.562 5.021-3.985 3.183-1.423 7.22-1.423 4.115 0 7.194 1.423 3.106 1.423 4.865 3.934 1.76 2.51 1.837 5.719h-6.703q-.259-2.458-2.226-3.83-1.941-1.372-5.072-1.372-3.261 0-5.124 1.449-1.863 1.423-1.863 3.623 0 1.63.983 2.666 1.009 1.009 2.51 1.63 1.527.621 3.08 1.009l3.597.932q2.847.699 5.435 2.019 2.614 1.294 4.244 3.494 1.656 2.2 1.656 5.564 0 3.39-1.734 5.978-1.734 2.562-4.995 4.011-3.261 1.423-7.867 1.423zM2322.878-998.365q-4.374 0-7.531-1.837-3.131-1.837-4.839-5.176-1.682-3.338-1.682-7.867 0-4.451 1.656-7.815 1.682-3.39 4.736-5.279 3.08-1.915 7.22-1.915 3.52 0 6.521 1.553 3.028 1.527 4.865 4.762 1.837 3.209 1.837 8.281v2.122h-20.134q.129 3.856 2.148 5.875 2.044 2.019 5.279 2.019 2.226 0 3.804-.957 1.604-.957 2.277-2.795l6.185 1.268q-1.035 3.494-4.296 5.642-3.235 2.122-8.048 2.122zm-7.324-17.753h13.561q-.311-3.106-1.993-4.969-1.656-1.889-4.658-1.889-3.08 0-4.891 1.993-1.786 1.967-2.019 4.865zM2349.162-1037.52v38.56h-6.729v-38.56zM2372.521-1027.893v5.279h-6.263v23.653h-6.703v-23.653h-5.305v-5.279h5.305v-2.769q0-2.872 1.216-4.788 1.216-1.941 3.235-2.898 2.044-.983 4.529-.983 1.786 0 3.157.285 1.372.285 2.019.517l-1.372 5.228q-.44-.129-1.087-.259-.621-.155-1.475-.155-1.889 0-2.717.932-.802.932-.802 2.64v2.252z"/></g></svg>