<svg xmlns="http://www.w3.org/2000/svg" width="400" height="241.875"><g fill="#cbd5e1" opacity=".05" fill-rule="evenodd"><path d="M130.129.552a2.44 2.44 0 0 0-.032 3.573c1.454 1.381 4.07.229 4.07-1.792 0-2.026-2.544-3.149-4.038-1.781m7.154.032c-1.018.989-1.038 2.39-.05 3.469 1.201 1.311 3.704.592 4.032-1.158.441-2.351-2.302-3.943-3.982-2.311m7.175.014c-1.04 1.01-1.052 2.411-.03 3.463 1.243 1.28 3.671.606 3.993-1.109.455-2.426-2.24-4.027-3.963-2.354M123.79 7.245c-2.662.921-1.955 4.755.876 4.755 1.037 0 2.334-1.325 2.334-2.384 0-1.686-1.656-2.909-3.21-2.371m7.263-.055c-.728.202-1.518 1.036-1.65 1.742-.55 2.933 3.008 4.262 4.492 1.679 1.008-1.752-.839-3.975-2.842-3.421m7.192-.006c-2.092.581-2.338 3.562-.378 4.582 1.957 1.018 4.2-1.26 3.235-3.284-.481-1.007-1.78-1.598-2.857-1.298m7.172.002c-1.556.43-2.244 2.343-1.329 3.69.693 1.02 2.018 1.436 2.963.93 2.669-1.429 1.257-5.419-1.634-4.62m7.186-.005c-1.472.414-2.201 2.235-1.423 3.554 1.542 2.613 5.288.78 4.331-2.119-.355-1.074-1.746-1.761-2.908-1.435M87.661 14.47c-2.401 1.064-1.688 4.697.922 4.697 2.416 0 3.354-3.427 1.234-4.509-.628-.32-1.656-.41-2.156-.188m7.172-.019c-1.272.465-1.884 2.304-1.158 3.479 1.27 2.054 4.27 1.399 4.445-.97.137-1.856-1.55-3.144-3.287-2.509m21.417.107c-2.204 1.02-1.35 4.609 1.097 4.609 2.935 0 3.238-4.513.32-4.763-.587-.05-1.097.005-1.417.154m7.126.04c-1.228.627-1.641 2.53-.773 3.562 1.174 1.395 2.796 1.344 3.939-.125 1.511-1.941-.922-4.583-3.166-3.437m7.137.03c-1.654.912-1.545 3.403.187 4.305 1.931 1.004 4.237-1.302 3.233-3.233-.653-1.254-2.207-1.742-3.42-1.072m7.404-.147c-2.342 1.019-1.557 4.686 1.002 4.686 2.263 0 3.283-3.076 1.462-4.406-.485-.354-1.92-.517-2.464-.28m7.244-.011c-2.401 1.064-1.688 4.697.922 4.697 2.411 0 3.342-3.402 1.24-4.529-.562-.301-1.667-.387-2.162-.168m7.172-.019c-1.272.465-1.884 2.304-1.158 3.479 1.27 2.054 4.27 1.399 4.445-.97.137-1.856-1.55-3.144-3.287-2.509m158.084.03c-2.353 1.024-1.569 4.686 1.002 4.686 2.263 0 3.283-3.076 1.462-4.406-.485-.354-1.92-.517-2.464-.28M80.708 21.559c-1.766.628-2.287 2.773-.99 4.071.973.973 2.307.955 3.399-.046 1.784-1.634-.132-4.833-2.409-4.025M88 21.541c-2.582.677-2.34 4.498.3 4.751 1.975.19 3.302-1.723 2.446-3.526-.44-.928-1.713-1.496-2.746-1.225m7.202-.007c-2.625.695-2.379 4.504.308 4.763 1.88.18 3.117-1.482 2.497-3.358-.333-1.011-1.702-1.697-2.805-1.405m14.325.026c-1.728.507-2.343 2.72-1.109 3.99 1.015 1.046 2.463 1.043 3.484-.008 1.66-1.709-.096-4.65-2.375-3.982m7.16-.011c-2.955.935-1.833 5.287 1.215 4.715 2.079-.39 2.479-3.587.561-4.474-.842-.39-1.166-.434-1.776-.241m7.48-.097c-1.886.669-2.611 2.379-1.625 3.829 1.635 2.404 5.563.16 4.224-2.414-.49-.942-1.849-1.682-2.599-1.415m6.916.104c-1.334.518-1.839 1.287-1.712 2.609.238 2.48 3.418 2.978 4.604.721.6-1.141-.212-2.927-1.498-3.299-.763-.22-.898-.223-1.394-.031m7.125.001c-2.665.959-2.11 4.693.698 4.693 2.707 0 3.386-4.042.782-4.662l-.688-.165c-.138-.034-.494.027-.792.134m7.292-.015c-1.055.275-1.833 1.283-1.833 2.375 0 2.984 4.506 3.256 4.792.289.173-1.802-1.273-3.104-2.959-2.664m7.202-.008c-2.625.695-2.379 4.504.308 4.763 1.88.18 3.117-1.482 2.497-3.358-.333-1.011-1.702-1.697-2.805-1.405m7.149.007c-1.75.458-2.442 2.707-1.216 3.956 1.127 1.147 2.588 1.136 3.678-.027 1.568-1.673-.214-4.517-2.462-3.929m144.066-.076c-3.135.635-2.594 5.136.58 4.831 1.635-.157 2.677-2.004 1.936-3.429-.473-.91-1.666-1.574-2.516-1.402m6.869.104c-2.762.8-2.249 4.681.62 4.681 1.014 0 1.097-.031 1.705-.639 1.735-1.735.018-4.72-2.325-4.042m7.17-.002c-2.698.785-2.285 4.529.522 4.732.967.07 1.013.054 1.696-.583 1.905-1.776.252-4.867-2.218-4.149M51.583 28.928c-2.514 1.305-1.157 5.029 1.642 4.504 2.092-.392 2.478-3.578.545-4.495-.718-.34-1.541-.344-2.187-.009m7.21-.021c-2.532 1.321-1.22 5.054 1.59 4.527 2.128-.399 2.518-3.564.555-4.496-.704-.334-1.541-.346-2.145-.031m7.124.015c-1.703.845-1.663 3.522.065 4.346 1.585.757 3.518-.442 3.518-2.182 0-1.766-1.978-2.96-3.583-2.164m7.166.005c-1.665.842-1.624 3.516.065 4.336 1.589.772 3.519-.423 3.519-2.18 0-1.765-1.989-2.962-3.584-2.156m7.334-.1c-1.477.615-1.867 2.801-.706 3.962 1.557 1.557 4.039.515 4.039-1.695 0-1.815-1.678-2.956-3.333-2.267m7.25-.043c-.787.288-1.5 1.381-1.5 2.299 0 2.134 2.613 3.215 4.122 1.706 1.812-1.812-.203-4.889-2.622-4.005m7.184.001c-.822.326-1.518 1.379-1.518 2.298 0 2.088 2.622 3.206 4.086 1.743 1.868-1.868-.127-5.008-2.568-4.041m21.442.122c-2.576 1.344-1.212 5.053 1.659 4.514 2.085-.391 2.428-3.561.486-4.483-.704-.334-1.541-.346-2.145-.031m7.124.015c-1.703.845-1.663 3.522.065 4.346 1.585.757 3.518-.442 3.518-2.182 0-1.766-1.978-2.96-3.583-2.164m7.166-.004c-1.665.873-1.625 3.524.065 4.345 1.589.772 3.519-.423 3.519-2.18 0-1.761-2.023-2.984-3.584-2.165m7.334-.1c-2.381 1.055-1.61 4.599 1 4.599 3.093 0 3.304-4.502.22-4.692-.488-.031-1.037.011-1.22.093m7.25-.043c-2.28.916-1.799 4.45.637 4.685 1.651.158 2.613-.731 2.613-2.416 0-1.695-1.708-2.888-3.25-2.269m7.184.01c-.822.326-1.518 1.379-1.518 2.298 0 2.852 4.327 3.308 4.782.505.319-1.966-1.479-3.51-3.264-2.803m6.966.174c-.942.633-1.317 1.237-1.317 2.124 0 2.188 2.687 3.219 4.236 1.625 1.859-1.914-.719-5.225-2.919-3.749m57.5 0c-.942.633-1.317 1.237-1.317 2.124 0 2.188 2.687 3.219 4.236 1.625 1.859-1.914-.719-5.225-2.919-3.749m79.116-.038c-1.449.756-1.79 2.688-.672 3.807 1.566 1.566 4.239.531 4.239-1.642 0-1.759-2.008-2.978-3.567-2.165m7.15-.003c-1.665.873-1.625 3.524.065 4.345 1.589.772 3.519-.423 3.519-2.18 0-1.761-2.023-2.984-3.584-2.165m7.334-.1c-2.381 1.055-1.61 4.599 1 4.599 3.093 0 3.304-4.502.22-4.692-.488-.031-1.037.011-1.22.093m7.166 0c-2.226.987-1.665 4.412.761 4.645 1.64.158 2.573-.719 2.573-2.419 0-1.74-1.768-2.921-3.334-2.226M51.555 36.132c-1.92 1.034-1.578 4.067.502 4.457 1.703.32 2.943-.647 2.943-2.294 0-1.928-1.792-3.054-3.445-2.163m7.189-.025c-1.9.949-1.566 4.099.474 4.481 1.718.323 2.949-.623 2.949-2.264 0-1.94-1.732-3.061-3.423-2.217m7.167 0c-1.751.875-1.626 3.8.189 4.398 2.913.962 4.759-2.777 2.135-4.325-.684-.404-1.604-.432-2.324-.073m7.172.036c-.858.53-1.135.967-1.205 1.901-.204 2.724 3.29 3.687 4.555 1.256 1.035-1.99-1.448-4.331-3.35-3.157m7.167.005c-2.214 1.386-1.412 4.435 1.167 4.435 1.626 0 2.533-.98 2.38-2.573-.166-1.724-2.126-2.752-3.547-1.862m7.149.002c-2.083 1.27-1.403 4.294 1.006 4.474 1.62.121 2.674-.929 2.553-2.545-.133-1.786-2.071-2.836-3.559-1.929m7.137.068c-2.016 1.347-1.36 4.226 1.004 4.403 1.671.126 2.707-.91 2.581-2.581-.135-1.81-2.104-2.811-3.585-1.822m28.866-.07c-1.304.795-1.657 2.321-.822 3.549 1.28 1.885 4.42.849 4.42-1.458 0-1.748-2.131-2.985-3.598-2.091m7.181-.005c-.858.53-1.135.967-1.205 1.901-.204 2.724 3.29 3.687 4.555 1.256 1.035-1.99-1.448-4.331-3.35-3.157m7.167.005c-2.214 1.386-1.412 4.435 1.167 4.435 1.626 0 2.533-.98 2.38-2.573-.166-1.724-2.126-2.752-3.547-1.862m7.149.002c-2.083 1.27-1.403 4.294 1.006 4.474 1.62.121 2.674-.929 2.553-2.545-.133-1.786-2.071-2.836-3.559-1.929m7.137.068c-2.016 1.347-1.36 4.226 1.004 4.403 1.671.126 2.707-.91 2.581-2.581-.135-1.81-2.104-2.811-3.585-1.822m100.714-.07c-2.171 1.359-1.389 4.435 1.128 4.435 1.667 0 2.573-.964 2.419-2.573-.166-1.724-2.126-2.752-3.547-1.862m7.149.002c-2.051 1.251-1.395 4.293.964 4.471 1.664.125 2.717-.907 2.595-2.542-.133-1.786-2.071-2.836-3.559-1.929m14.4-.003c-2.602 1.67-.839 5.329 2.1 4.359 1.905-.629 2.002-3.445.151-4.398-.68-.35-1.672-.333-2.251.039m7.256-.015c-1.92 1.034-1.578 4.067.502 4.457 1.715.322 2.943-.626 2.943-2.273 0-1.949-1.783-3.08-3.445-2.184m7.189-.025c-1.802.9-1.63 3.848.258 4.413 1.777.533 3.165-.431 3.165-2.198 0-1.938-1.733-3.059-3.423-2.215m7.178.007c-.963.522-1.255 1.041-1.255 2.234 0 2.597 3.378 3.226 4.641.865 1.003-1.873-1.47-4.136-3.386-3.099m7.161.029c-.861.533-1.134.967-1.214 1.933-.224 2.695 3.306 3.641 4.564 1.224 1.035-1.99-1.448-4.331-3.35-3.157m7.167 0c-2.239 1.383-1.435 4.44 1.167 4.44 1.626 0 2.533-.98 2.38-2.573-.166-1.722-2.118-2.749-3.547-1.867m7.167 0c-2.153 1.33-1.482 4.283 1.02 4.491 1.603.133 2.683-.99 2.526-2.624-.165-1.722-2.118-2.749-3.546-1.867m7.04.112c-1.963 1.334-1.251 4.18 1.095 4.374 1.724.143 2.77-.972 2.57-2.742-.195-1.729-2.205-2.624-3.665-1.632m7.172.004c-1.968 1.29-1.247 4.177 1.092 4.371 1.662.137 2.612-.738 2.612-2.406 0-1.964-2.047-3.05-3.704-1.965m7.354-.094c-2.043 1.08-1.437 4.212.861 4.447 1.677.172 2.656-.695 2.656-2.352 0-1.932-1.798-3.003-3.517-2.095m14.439-.051c-.963.522-1.255 1.041-1.255 2.234 0 2.536 3.408 3.242 4.599.952 1.025-1.971-1.371-4.253-3.344-3.186m7.161.029c-.861.533-1.134.967-1.214 1.933-.224 2.695 3.306 3.641 4.564 1.224 1.035-1.99-1.448-4.331-3.35-3.157M8.402 43.315c-.923.563-1.235 1.121-1.235 2.207 0 2.569 3.391 3.283 4.589.966 1.025-1.982-1.457-4.33-3.354-3.173m7.348-.112c-1.638.947-1.924 2.778-.636 4.067 1.426 1.425 4.053.232 4.053-1.841 0-1.636-2.087-2.995-3.417-2.226m7.167-.001c-2.319 1.336-1.65 4.631.939 4.631 2.669 0 3.414-3.362 1.028-4.639-.46-.246-1.533-.242-1.967.008m21.393.158c-2.234 1.295-1.389 4.473 1.19 4.473.914 0 1.015-.041 1.653-.673 1.992-1.972-.425-5.203-2.843-3.8m14.425-.045c-2.217 1.352-1.443 4.518 1.105 4.518.947 0 1.045-.038 1.667-.653 1.933-1.915-.471-5.268-2.772-3.865m7.167 0c-2.197 1.34-1.412 4.518 1.115 4.518 1.058 0 1.762-.423 2.239-1.345 1.025-1.982-1.457-4.33-3.354-3.173m7.348-.112c-1.608.93-1.909 2.794-.653 4.049 1.442 1.443 4.07.265 4.07-1.823 0-1.636-2.087-2.995-3.417-2.226m7.167-.001c-2.275 1.311-1.642 4.631.883 4.631 2.741 0 3.52-3.335 1.084-4.639-.46-.246-1.533-.242-1.967.008m7.166-.004c-1.419.799-1.842 2.594-.891 3.782 1.603 2.001 4.674.504 4.255-2.075-.223-1.373-2.187-2.37-3.364-1.707m35.819.117c-2.197 1.34-1.412 4.518 1.115 4.518 1.058 0 1.762-.423 2.239-1.345 1.03-1.991-1.448-4.335-3.354-3.173m7.348-.112c-1.608.93-1.903 2.74-.655 4.025 1.43 1.473 4.072.306 4.072-1.799 0-1.636-2.087-2.995-3.417-2.226m7.167-.001c-2.275 1.311-1.642 4.631.883 4.631 2.741 0 3.52-3.335 1.084-4.639-.46-.246-1.533-.242-1.967.008m7.166-.004c-2.417 1.361-1.605 4.635 1.149 4.635 2.519 0 3.121-3.407.819-4.639-.457-.245-1.53-.243-1.968.004m6.939.215c-1.239.875-1.524 2.17-.744 3.373 1.051 1.62 3.647 1.373 4.233-.402.753-2.283-1.612-4.297-3.489-2.971m64.788-.053c-2.242 1.299-1.388 4.473 1.203 4.473.929 0 1.026-.039 1.654-.666 1.977-1.978-.445-5.206-2.857-3.807m7.173-.004c-.836.485-1.15 1.093-1.15 2.231 0 2.134 2.47 3.11 4 1.58 1.979-1.979-.438-5.21-2.85-3.811m21.767-.153c-1.608.93-1.903 2.74-.655 4.025 1.43 1.473 4.072.306 4.072-1.799 0-1.636-2.087-2.995-3.417-2.226m28.56.157c-2.242 1.299-1.388 4.473 1.203 4.473.929 0 1.026-.039 1.654-.666 1.977-1.978-.445-5.206-2.857-3.807m7.173-.004c-.836.485-1.15 1.093-1.15 2.231 0 2.134 2.47 3.11 4 1.58 1.979-1.979-.438-5.21-2.85-3.811m7.252-.041c-2.224 1.357-1.442 4.518 1.118 4.518.962 0 1.056-.036 1.667-.647 1.919-1.919-.491-5.27-2.785-3.871m7.167 0c-.923.563-1.235 1.121-1.235 2.207 0 2.569 3.391 3.283 4.589.966 1.03-1.991-1.448-4.335-3.354-3.173m7.348-.112c-1.286.744-1.803 2.233-1.188 3.423 1.131 2.186 4.605 1.283 4.605-1.197 0-1.636-2.087-2.995-3.417-2.226m7.167 0c-2.37 1.37-1.68 4.63.98 4.63 2.667 0 3.382-3.358.987-4.639-.461-.247-1.534-.242-1.967.009m7.166-.001c-2.376 1.37-1.664 4.631 1.011 4.631 2.66 0 3.353-3.357.957-4.639-.46-.246-1.533-.242-1.968.008m6.861.257c-1.206.899-1.465 2.242-.652 3.38 1.116 1.564 3.642 1.291 4.219-.455.77-2.335-1.672-4.338-3.567-2.925m7.275-.038c-2.185 1.31-1.275 4.412 1.294 4.412.929 0 1.026-.039 1.654-.666 2.032-2.033-.48-5.225-2.948-3.746m7.216-.027c-.852.516-1.089.984-1.096 2.167-.013 2.158 2.452 3.148 3.994 1.606 2.009-2.009-.474-5.24-2.898-3.773m7.112.051c-.839.544-1.047.97-1.047 2.146 0 2.092 2.522 3.093 4.02 1.595 2.035-2.035-.562-5.304-2.973-3.741m7.355-.13c-.923.563-1.235 1.121-1.235 2.207 0 2.569 3.391 3.283 4.589.966 1.03-1.991-1.448-4.335-3.354-3.173m7.348-.112c-2.332 1.349-1.7 4.63.893 4.63 2.57 0 3.445-2.876 1.347-4.424-.608-.448-1.654-.545-2.24-.206m7.167 0c-2.382 1.377-1.679 4.63 1 4.63 2.659 0 3.36-3.359.967-4.639-.461-.247-1.534-.242-1.967.009M8.927 50.345c-1.784.306-2.428 2.654-1.094 3.988 1.965 1.965 5.177-.406 3.821-2.82-.557-.991-1.472-1.383-2.727-1.168m7.134-.011c-1.828.405-2.354 3.083-.834 4.243.772.589 2.31.6 2.966.022 2.041-1.798.515-4.851-2.132-4.265m7.138.006c-1.112.245-1.871 1.606-1.626 2.912.312 1.665 2.646 2.4 3.897 1.228 1.945-1.823.356-4.719-2.271-4.14m7.275-.055c-1.1.167-1.979 1.662-1.737 2.954.442 2.354 4.25 2.362 4.691.01.248-1.325-.666-2.916-1.676-2.916a3 3 0 0 1-.613-.057c-.122-.032-.422-.027-.665.009m7.191.027c-1.579.395-2.287 2.253-1.387 3.641 1.068 1.646 3.697 1.364 4.242-.455.426-1.421-.465-3.165-1.617-3.165-.206 0-.476-.028-.598-.063-.122-.034-.41-.016-.64.042m7.252.025c-.741.157-1.184.488-1.571 1.176-1.356 2.414 1.856 4.785 3.821 2.82 1.727-1.727.163-4.506-2.25-3.996m7.166-.015c-2.752.664-2.268 4.678.564 4.678 2.201 0 3.251-2.475 1.706-4.02-.356-.355-.8-.647-.986-.647a2.4 2.4 0 0 1-.562-.066c-.122-.036-.447-.011-.722.055m7.086.022c-1.715.384-2.296 2.696-1.002 3.989 1.53 1.53 4 .555 4-1.579 0-1.816-1.231-2.805-2.998-2.41m7.167 0c-1.715.384-2.296 2.696-1.003 3.989 1.968 1.968 5.177-.407 3.818-2.825-.557-.991-1.621-1.431-2.815-1.164m7.234-.012c-1.819.404-2.352 3.094-.841 4.247.77.587 2.309.597 2.964.02 2.037-1.794.515-4.852-2.123-4.267m7.129 0c-1.69.399-2.236 2.786-.935 4.087 1.655 1.656 4.442.034 3.999-2.328-.137-.727-1.112-1.758-1.663-1.758-.223 0-.506-.029-.628-.066-.122-.036-.47-.007-.773.065m7.275-.047c-1.1.167-1.979 1.662-1.737 2.954.442 2.354 4.25 2.362 4.691.01.248-1.325-.666-2.916-1.676-2.916a3 3 0 0 1-.613-.057c-.122-.032-.422-.027-.665.009m7.109.065c-2.712.833-2.081 4.65.769 4.65 1.564 0 2.497-1.2 2.245-2.886-.127-.847-1.015-1.781-1.694-1.781a2.5 2.5 0 0 1-.598-.068c-.122-.037-.447.001-.722.085m35.987-.018c-1.819.404-2.352 3.094-.841 4.247.77.587 2.309.597 2.964.02 2.037-1.794.515-4.852-2.123-4.267m7.129 0c-1.69.399-2.236 2.786-.935 4.087 1.655 1.656 4.442.034 3.999-2.328-.137-.727-1.112-1.758-1.663-1.758-.223 0-.506-.029-.628-.066-.122-.036-.47-.007-.773.065m7.275-.047c-1.1.167-1.979 1.662-1.737 2.954.442 2.354 4.25 2.362 4.691.01.248-1.325-.666-2.916-1.676-2.916a3 3 0 0 1-.613-.057c-.122-.032-.422-.027-.665.009m7.109.065c-2.712.833-2.081 4.65.769 4.65 1.564 0 2.497-1.2 2.245-2.886-.127-.847-1.015-1.781-1.694-1.781a2.5 2.5 0 0 1-.598-.068c-.122-.037-.447.001-.722.085m57.5 0c-2.712.833-2.081 4.65.769 4.65 1.564 0 2.497-1.2 2.245-2.886-.127-.847-1.015-1.781-1.694-1.781a2.5 2.5 0 0 1-.598-.068c-.122-.037-.447.001-.722.085m7.334-.013c-.741.157-1.184.488-1.571 1.176-1.356 2.414 1.856 4.785 3.821 2.82 1.727-1.727.163-4.506-2.25-3.996m7.166-.015c-2.752.664-2.268 4.678.564 4.678 2.201 0 3.251-2.475 1.706-4.02-.356-.355-.8-.647-.986-.647a2.4 2.4 0 0 1-.562-.066c-.122-.036-.447-.011-.722.055m7.086.022c-1.715.384-2.296 2.696-1.002 3.989 1.53 1.53 4 .555 4-1.579 0-1.816-1.231-2.805-2.998-2.41m21.53-.012c-1.689.398-2.228 2.734-.938 4.063 1.65 1.698 4.45.086 4.002-2.304-.137-.727-1.112-1.758-1.663-1.758-.223 0-.506-.029-.628-.066-.122-.036-.47-.007-.773.065m14.384.018c-2.712.833-2.081 4.65.769 4.65 1.564 0 2.497-1.2 2.245-2.886-.127-.847-1.015-1.781-1.694-1.781a2.5 2.5 0 0 1-.598-.068c-.122-.037-.447.001-.722.085m7.334-.013c-.741.157-1.184.488-1.571 1.176-1.356 2.414 1.856 4.785 3.821 2.82 1.727-1.727.163-4.506-2.25-3.996m7.166-.015c-2.752.664-2.268 4.678.564 4.678 2.201 0 3.251-2.475 1.706-4.02-.356-.355-.8-.647-.986-.647a2.4 2.4 0 0 1-.562-.066c-.122-.036-.447-.011-.722.055m7.086.022c-1.715.384-2.296 2.696-1.002 3.989 1.53 1.53 4 .555 4-1.579 0-1.816-1.231-2.805-2.998-2.41m7.258.001c-1.784.306-2.428 2.654-1.094 3.988 1.965 1.965 5.177-.406 3.821-2.82-.557-.991-1.472-1.383-2.727-1.168m7.221-.016c-1.956.36-2.492 3.143-.833 4.325.707.503 2.271.487 2.869-.029 2.039-1.763.608-4.783-2.036-4.296m7.167-.006c-1.525.297-2.332 2.217-1.499 3.566 1.452 2.349 4.958.931 4.447-1.798-.126-.667-1.105-1.758-1.58-1.758-.177 0-.422-.028-.544-.063s-.493-.011-.824.053m7.276-.033c-1.492.218-2.473 2.336-1.642 3.548 1.639 2.391 5.004 1.044 4.472-1.79-.129-.689-1.078-1.715-1.586-1.715a2.6 2.6 0 0 1-.53-.057c-.122-.032-.443-.025-.714.014m7.158.024c-2.104.43-2.548 3.055-.756 4.472.491.388 2.161.263 2.778-.207 1.442-1.1.862-4.246-.784-4.246-.161 0-.393-.027-.515-.06-.122-.034-.448-.015-.723.041m7.501-.065c-.092.03-.354.097-.583.149-1.304.293-2.06 2.025-1.423 3.257 1.211 2.342 4.589 1.6 4.589-1.008 0-1.114-.846-2.314-1.633-2.314-.187 0-.439-.031-.561-.07a.75.75 0 0 0-.389-.014m6.833.073c-2.752.664-2.268 4.678.564 4.678 2.201 0 3.251-2.475 1.706-4.02-.356-.355-.8-.647-.986-.647a2.4 2.4 0 0 1-.562-.066c-.122-.036-.447-.011-.722.055m7.086.022c-1.715.384-2.296 2.696-1.002 3.989 1.53 1.53 4 .555 4-1.579 0-1.816-1.231-2.805-2.998-2.41m7.258.001c-1.784.306-2.428 2.654-1.094 3.988 1.965 1.965 5.177-.406 3.821-2.82-.557-.991-1.472-1.383-2.727-1.168m7.221-.016c-1.956.36-2.492 3.143-.833 4.325.707.503 2.271.487 2.869-.029 2.039-1.763.608-4.783-2.036-4.296m7.167-.006c-1.525.297-2.332 2.217-1.499 3.566 1.452 2.349 4.958.931 4.447-1.798-.126-.667-1.105-1.758-1.58-1.758-.177 0-.422-.028-.544-.063s-.493-.011-.824.053m7.276-.033c-1.492.218-2.473 2.336-1.642 3.548 1.639 2.391 5.004 1.044 4.472-1.79-.129-.689-1.078-1.715-1.586-1.715a2.6 2.6 0 0 1-.53-.057c-.122-.032-.443-.025-.714.014m7.158.024c-2.104.43-2.548 3.055-.756 4.472.491.388 2.161.263 2.778-.207 1.442-1.1.862-4.246-.784-4.246-.161 0-.393-.027-.515-.06-.122-.034-.448-.015-.723.041m7.168.008c-2.856.689-2.347 4.678.596 4.678 2.168 0 3.204-2.488 1.673-4.02-.356-.355-.799-.647-.986-.647s-.439-.029-.561-.066c-.122-.036-.447-.011-.722.055M.667 58.167c-1.557 1.556-.527 4 1.686 4 2.206 0 3.23-2.514 1.64-4.026-1.011-.962-2.349-.952-3.326.026m7.166 0c-.629.629-.666.722-.666 1.666 0 2.59 3.384 3.319 4.589.989 1.197-2.315-2.059-4.519-3.923-2.655m7.379-.204c-1.813 1.528-.818 4.204 1.563 4.204 2.375 0 3.292-3.141 1.267-4.336-.859-.507-2.144-.447-2.83.132m7.071.121c-1.62 1.573-.633 4.083 1.605 4.083 2.271 0 3.456-3.319 1.502-4.209-.214-.098-.39-.241-.39-.318 0-.475-2.13-.126-2.717.444m7.167 0c-1.623 1.576-.633 4.083 1.613 4.083 2.58 0 3.327-2.753 1.21-4.459-.585-.471-2.168-.26-2.823.376m7.522-.299c-1.047.649-1.418 2.161-.789 3.215 1.452 2.432 4.932 1.025 4.405-1.782-.27-1.439-2.306-2.246-3.616-1.433m7.167 0c-.578.358-1.139 1.367-1.139 2.048 0 2.098 2.668 3.165 4.167 1.667 1.991-1.992-.627-5.205-3.028-3.715m6.868.356c-1.092 1.039-.917 3.015.333 3.753.921.544 2.227.373 2.993-.394 2.223-2.223-1.048-5.526-3.326-3.359m7.16.026c-1.557 1.556-.527 4 1.686 4 2.206 0 3.23-2.514 1.64-4.026-1.011-.962-2.349-.952-3.326.026m7.166 0c-.627.627-.666.724-.666 1.653 0 2.591 3.385 3.33 4.589 1.002 1.197-2.315-2.059-4.519-3.923-2.655m7.296-.115a2.42 2.42 0 0 0-.02 3.567c1.458 1.374 4.058.239 4.058-1.772 0-2.014-2.557-3.151-4.038-1.795m7.154.032c-1.611 1.565-.619 4.083 1.608 4.083 2.268 0 3.451-3.32 1.499-4.209-.214-.098-.39-.241-.39-.318 0-.475-2.13-.126-2.717.444m7.167 0c-1.615 1.568-.62 4.083 1.616 4.083 2.578 0 3.323-2.754 1.207-4.459-.585-.471-2.168-.26-2.823.376m7.522-.299c-1.449.899-1.414 3.386.06 4.148 1.914.99 3.959-.57 3.556-2.715-.27-1.439-2.306-2.246-3.616-1.433m7.167 0c-.578.358-1.139 1.367-1.139 2.048 0 2.098 2.668 3.165 4.167 1.667 1.991-1.992-.627-5.205-3.028-3.715m28.49.267c-1.05.962-1.06 2.535-.021 3.544 1.451 1.41 4.059.277 4.059-1.763 0-2.034-2.539-3.154-4.038-1.781m7.154.032c-1.03 1.001-1.039 2.43-.022 3.477 1.234 1.27 3.68.562 4.003-1.159.312-1.664-.689-2.902-2.347-2.902-.955 0-1.078.044-1.634.584m64.667 0c-1.031 1.001-1.039 2.43-.022 3.477 1.238 1.275 3.677.577 4-1.145.315-1.679-.68-2.916-2.345-2.916-.954 0-1.077.044-1.633.584m7.522-.299c-1.449.899-1.414 3.386.06 4.148 1.914.99 3.959-.57 3.556-2.715-.27-1.439-2.306-2.246-3.616-1.433m7.167 0c-.578.358-1.139 1.367-1.139 2.048 0 2.098 2.668 3.165 4.167 1.667 1.991-1.992-.627-5.205-3.028-3.715m6.868.356c-1.092 1.039-.917 3.015.333 3.753.921.544 2.227.373 2.993-.394 2.223-2.223-1.048-5.526-3.326-3.359m7.16.026c-1.557 1.556-.527 4 1.686 4 1.514 0 2.314-.807 2.314-2.334 0-2.22-2.433-3.234-4-1.666m7.166 0c-.627.627-.666.724-.666 1.653 0 2.591 3.385 3.33 4.589 1.002 1.202-2.325-2.051-4.527-3.923-2.655m7.296-.115c-1.05.962-1.06 2.535-.021 3.544 1.451 1.41 4.059.277 4.059-1.763 0-2.034-2.539-3.154-4.038-1.781m7.154.032c-1.03 1.001-1.039 2.43-.022 3.477 1.234 1.27 3.68.562 4.003-1.159.312-1.664-.689-2.902-2.347-2.902-.955 0-1.078.044-1.634.584m7.167 0c-1.031 1.001-1.039 2.43-.022 3.477 1.238 1.275 3.677.577 4-1.145.315-1.679-.68-2.916-2.345-2.916-.954 0-1.077.044-1.633.584m7.522-.299c-1.449.899-1.414 3.386.06 4.148 1.914.99 3.959-.57 3.556-2.715-.27-1.439-2.306-2.246-3.616-1.433m7.167 0c-.578.358-1.139 1.367-1.139 2.048 0 2.098 2.668 3.165 4.167 1.667 1.991-1.992-.627-5.205-3.028-3.715m6.868.356c-1.092 1.039-.917 3.015.333 3.753.921.544 2.227.373 2.993-.394 2.223-2.223-1.048-5.526-3.326-3.359m7.16.026c-1.557 1.556-.527 4 1.686 4 1.514 0 2.314-.807 2.314-2.334 0-2.22-2.433-3.234-4-1.666m7.166 0c-.629.629-.666.722-.666 1.666 0 2.59 3.384 3.319 4.589.989 1.202-2.325-2.051-4.527-3.923-2.655m7.392-.204c-1.828 1.581-.856 4.211 1.551 4.198 2.333-.012 3.235-2.746 1.412-4.28-.681-.574-2.255-.53-2.963.082m7.167 0c-1.821 1.574-.842 4.204 1.565 4.204 2.199 0 3.188-2.534 1.593-4.083-.818-.794-2.313-.852-3.158-.121m7.275-.106c-1.941 1.613-1.01 4.31 1.488 4.31 2.195 0 3.162-2.528 1.562-4.083-.752-.731-2.305-.846-3.05-.227m7.214-.008c-1.047.67-1.376 2.204-.687 3.209 1.603 2.339 4.918.952 4.394-1.84-.281-1.5-2.324-2.255-3.707-1.369m7.281-.064c-1.211.837-1.529 2.161-.79 3.288 1.357 2.069 4.461 1.206 4.461-1.24 0-1.883-2.163-3.09-3.671-2.048m6.845.356c-1.092 1.039-.917 3.015.333 3.753.921.544 2.227.373 2.993-.394 2.223-2.223-1.048-5.526-3.326-3.359m7.16.026c-1.557 1.556-.527 4 1.686 4 1.514 0 2.314-.807 2.314-2.334 0-2.22-2.433-3.234-4-1.666m7.166 0c-1.509 1.509-.528 4 1.576 4 1.176 0 1.602-.208 2.146-1.048 1.565-2.413-1.683-4.991-3.722-2.952m7.392-.204c-1.827 1.58-.859 4.204 1.551 4.203 2.333 0 3.239-2.748 1.412-4.285-.681-.574-2.255-.53-2.963.082m7.167 0c-1.83 1.582-.842 4.204 1.585 4.204 2.193 0 3.169-2.533 1.573-4.083-.818-.794-2.313-.852-3.158-.121m7.166 0c-1.835 1.587-.841 4.204 1.597 4.204 2.195 0 3.162-2.528 1.562-4.083-.818-.794-2.314-.852-3.159-.121m7.323-.114c-1.047.67-1.376 2.204-.687 3.209 1.609 2.348 4.92.962 4.394-1.84-.281-1.5-2.324-2.255-3.707-1.369m7.281-.064c-1.174.811-1.48 2.02-.813 3.207 1.22 2.171 4.484 1.328 4.484-1.159 0-1.883-2.163-3.09-3.671-2.048M9.03 64.636c-1.769.17-2.537 2.729-1.216 4.05 1.869 1.87 5.138-.361 3.936-2.686-.501-.969-1.518-1.479-2.72-1.364m7.147-.008c-.691.119-1.469.844-1.731 1.611-.97 2.848 3.069 4.472 4.456 1.79.89-1.722-.729-3.743-2.725-3.401m7.13-.003c-1.096.151-1.979 1.654-1.736 2.954.418 2.223 3.795 2.443 4.61.299.673-1.769-.882-3.529-2.874-3.253m7.104.061c-2.664.728-2.126 4.647.638 4.647 2.307 0 3.485-3.181 1.554-4.197-.194-.102-.391-.238-.436-.302-.144-.2-1.229-.292-1.756-.148m7.192-.005c-1.454.408-2.152 2.083-1.446 3.467.989 1.939 4.123 1.519 4.44-.596.288-1.921-1.221-3.368-2.994-2.871m7.25.004c-.97.198-1.853 1.307-1.853 2.326 0 2.076 2.704 3.158 4.186 1.675 1.74-1.739.127-4.504-2.333-4.001m7.267-.064c-1.921.286-2.475 3.439-.78 4.44 2.443 1.443 4.991-1.73 2.993-3.728-.366-.366-.81-.666-.986-.666s-.42-.026-.542-.058c-.122-.031-.43-.026-.685.012m7.159 0c-1.705.253-2.411 2.786-1.132 4.065 1.558 1.558 4.02.522 4.02-1.692 0-1.12-.861-2.327-1.66-2.327-.172 0-.413-.026-.535-.058-.122-.031-.434-.026-.693.012m7.167.006c-1.701.231-2.412 2.78-1.132 4.059 1.179 1.18 3.152.831 3.942-.698.876-1.694-.751-3.641-2.81-3.361m7.231.001c-1.198.206-1.986 1.508-1.773 2.929.409 2.725 4.763 2.229 4.763-.543 0-1.461-1.483-2.644-2.99-2.386m7.13-.003c-1.096.151-1.979 1.654-1.736 2.954.418 2.223 3.795 2.443 4.61.299.673-1.769-.882-3.529-2.874-3.253m14.296.056c-1.454.408-2.152 2.083-1.446 3.467.989 1.939 4.123 1.519 4.44-.596.288-1.921-1.221-3.368-2.994-2.871m7.25.004c-.97.198-1.853 1.307-1.853 2.326 0 2.076 2.704 3.158 4.186 1.675 1.74-1.739.127-4.504-2.333-4.001m7.267-.064c-1.921.286-2.475 3.439-.78 4.44 2.443 1.443 4.991-1.73 2.993-3.728-.366-.366-.81-.666-.986-.666s-.42-.026-.542-.058c-.122-.031-.43-.026-.685.012m21.557.007c-1.198.206-1.986 1.508-1.773 2.929.328 2.189 3.441 2.516 4.498.472.895-1.73-.719-3.745-2.725-3.401m35.943-.007c-1.921.286-2.475 3.439-.78 4.44 2.443 1.443 4.991-1.73 2.993-3.728-.366-.366-.81-.666-.986-.666s-.42-.026-.542-.058c-.122-.031-.43-.026-.685.012m7.159 0c-2.735.406-2.228 4.712.554 4.712.985 0 1.073-.033 1.687-.647 1.225-1.225.54-4.019-.987-4.019a2.8 2.8 0 0 1-.561-.058c-.122-.031-.434-.026-.693.012m21.528-.002c-1.092.165-1.979 1.661-1.74 2.934.45 2.398 4.249 2.405 4.698.008.234-1.248-.735-2.894-1.705-2.894a3 3 0 0 1-.588-.058c-.122-.031-.421-.027-.665.01m7.104.067c-1.163.318-1.915 1.603-1.678 2.867.477 2.542 4.405 2.394 4.71-.177.216-1.828-1.291-3.165-3.032-2.69m7.286-.003c-.974.199-1.864 1.304-1.864 2.315 0 2.799 4.351 3.309 4.763.559.288-1.923-1.052-3.252-2.899-2.874m14.423-.062c-1.921.286-2.475 3.439-.78 4.44 2.443 1.443 4.991-1.73 2.993-3.728-.366-.366-.81-.666-.986-.666s-.42-.026-.542-.058c-.122-.031-.43-.026-.685.012m7.159 0c-2.735.406-2.228 4.712.554 4.712.985 0 1.073-.033 1.687-.647 1.225-1.225.54-4.019-.987-4.019a2.8 2.8 0 0 1-.561-.058c-.122-.031-.434-.026-.693.012m7.167.006c-.956.13-1.779 1.231-1.779 2.38 0 2.431 3.062 3.324 4.388 1.279 1.184-1.826-.343-3.967-2.609-3.659m7.231.001c-1.176.202-1.967 1.468-1.779 2.844.309 2.248 3.427 2.649 4.494.578.903-1.753-.696-3.768-2.715-3.422m7.13-.009c-1.092.165-1.979 1.661-1.74 2.934.451 2.407 4.246 2.416 4.698.011.234-1.251-.734-2.897-1.705-2.897a3 3 0 0 1-.588-.058c-.122-.031-.421-.027-.665.01m7.104.067c-1.163.318-1.915 1.603-1.678 2.867.479 2.549 4.404 2.404 4.709-.174.217-1.831-1.288-3.169-3.031-2.693m7.286-.003c-.99.202-1.864 1.305-1.863 2.35.003 2.761 4.355 3.239 4.762.524.288-1.923-1.052-3.252-2.899-2.874m7.156.002c-.97.198-1.853 1.307-1.853 2.326 0 2.076 2.704 3.158 4.186 1.675 1.74-1.739.127-4.504-2.333-4.001m7.267-.064c-1.921.286-2.475 3.439-.78 4.44 2.443 1.443 4.991-1.73 2.993-3.728-.366-.366-.81-.666-.986-.666s-.42-.026-.542-.058c-.122-.031-.43-.026-.685.012m7.159 0c-2.735.406-2.228 4.712.554 4.712.985 0 1.073-.033 1.687-.647 1.225-1.225.54-4.019-.987-4.019a2.8 2.8 0 0 1-.561-.058c-.122-.031-.434-.026-.693.012m7.251.014c-1.769.174-2.537 2.73-1.216 4.051a2.4 2.4 0 0 0 3.741-.4c1.179-1.818-.243-3.874-2.525-3.651m7.232-.008c-1.856.258-2.611 2.864-1.203 4.154.785.719 2.392.81 3.125.177 1.969-1.702.644-4.689-1.922-4.331m7.167.002c-1.848.249-2.593 2.781-1.212 4.122.862.837 2.513.87 3.299.066 1.778-1.819.429-4.527-2.087-4.188m7.146.025c-1.064.201-1.908 1.229-1.908 2.322 0 2.972 4.427 3.346 4.775.403.211-1.782-1.129-3.055-2.867-2.725m7.147.013c-1.593.359-2.375 2.157-1.547 3.56 1.1 1.864 4.109 1.408 4.421-.67.285-1.9-1.098-3.291-2.874-2.89m7.111.003c-2.018.47-2.438 3.34-.643 4.4 2.428 1.435 4.964-1.749 2.977-3.737-.367-.366-.811-.666-.987-.666a2.3 2.3 0 0 1-.541-.066c-.122-.037-.485-.005-.806.069m7.287-.049c-1.921.286-2.475 3.439-.78 4.44 2.443 1.443 4.991-1.73 2.993-3.728-.366-.366-.81-.666-.986-.666s-.42-.026-.542-.058c-.122-.031-.43-.026-.685.012m7.159 0c-1.705.253-2.411 2.786-1.132 4.065 1.556 1.556 4.02.522 4.02-1.686 0-1.134-.84-2.333-1.634-2.333a2.8 2.8 0 0 1-.561-.058c-.122-.031-.434-.026-.693.012m7.251.014c-1.769.174-2.537 2.73-1.216 4.051a2.4 2.4 0 0 0 3.741-.4c1.179-1.818-.243-3.874-2.525-3.651m7.232-.008c-1.856.258-2.611 2.864-1.203 4.154.785.719 2.392.81 3.125.177 1.969-1.702.644-4.689-1.922-4.331m7.167.002c-1.848.249-2.593 2.781-1.212 4.122.862.837 2.513.87 3.299.066 1.778-1.819.429-4.527-2.087-4.188m7.146.025c-1.064.201-1.908 1.229-1.908 2.322 0 2.972 4.427 3.346 4.775.403.211-1.782-1.129-3.055-2.867-2.725m7.092.023c-1.484.329-2.278 2.218-1.492 3.55 1.1 1.864 4.109 1.408 4.421-.67.289-1.928-1.094-3.287-2.929-2.88m7.197-.012c-2.051.485-2.487 3.334-.674 4.405 2.428 1.435 4.964-1.749 2.977-3.737-.367-.366-.811-.666-.987-.666a2.3 2.3 0 0 1-.541-.066c-.122-.037-.471-.008-.775.064M8.399 72.072c-2.207.96-1.328 4.595 1.112 4.595 1.187 0 2.489-1.239 2.488-2.367-.001-1.826-1.869-2.982-3.6-2.228m7.151.032c-1.736.856-1.648 3.393.15 4.329 1.998 1.039 4.311-1.464 3.134-3.393-.676-1.109-2.106-1.517-3.284-.936m7.367-.114c-1.84.751-1.871 3.496-.05 4.443 1.965 1.022 4.198-1.258 3.229-3.299-.483-1.018-2.079-1.592-3.179-1.144m7.244-.02c-2.403 1.065-1.687 4.697.925 4.697 2.406 0 3.343-3.431 1.231-4.509-.628-.32-1.656-.41-2.156-.188m7.172-.019c-1.799.658-1.956 3.327-.258 4.377 2.033 1.257 4.447-1.161 3.309-3.314-.491-.929-1.989-1.451-3.051-1.063m7.084.041c-.71.294-1.417 1.382-1.417 2.183 0 1.703 2.022 3.006 3.488 2.248 2.815-1.456.858-5.641-2.071-4.431m7.25.025c-1.742.677-1.841 3.356-.159 4.301 1.637.92 3.492-.194 3.492-2.097 0-1.808-1.612-2.874-3.333-2.204m7.083.051c-2.196.972-1.341 4.599 1.083 4.599 2.459 0 3.304-3.667 1.061-4.604-.685-.286-1.491-.284-2.144.005m7.15.003c-1.708.744-1.638 3.447.112 4.352 1.997 1.033 4.326-1.463 3.156-3.383-.665-1.089-2.049-1.5-3.268-.969m7.11.067c-1.651.885-1.54 3.394.19 4.295 1.998 1.039 4.311-1.464 3.134-3.393a2.507 2.507 0 0 0-3.324-.902m7.407-.148c-1.84.751-1.871 3.496-.05 4.443 1.965 1.022 4.198-1.258 3.229-3.299-.483-1.018-2.079-1.592-3.179-1.144m14.416-.039c-1.799.658-1.956 3.327-.258 4.377 2.033 1.257 4.447-1.161 3.309-3.314-.491-.929-1.989-1.451-3.051-1.063m7.084.041c-.71.294-1.417 1.382-1.417 2.183 0 1.703 2.022 3.006 3.488 2.248 2.815-1.456.858-5.641-2.071-4.431m7.25.025c-1.742.677-1.841 3.356-.159 4.301 1.637.92 3.492-.194 3.492-2.097 0-1.808-1.612-2.874-3.333-2.204m86.25-.036c-2.342 1.019-1.557 4.686 1.002 4.686 2.257 0 3.279-3.08 1.462-4.406-.485-.354-1.92-.517-2.464-.28m7.244-.011c-2.403 1.065-1.687 4.697.925 4.697 2.401 0 3.331-3.406 1.237-4.529-.562-.301-1.667-.387-2.162-.168m7.172-.019c-1.799.658-1.956 3.327-.258 4.377 2.033 1.257 4.447-1.161 3.309-3.314-.491-.929-1.989-1.451-3.051-1.063m14.334.066c-1.742.677-1.841 3.356-.159 4.301 1.637.92 3.492-.194 3.492-2.097 0-1.808-1.612-2.874-3.333-2.204m7.083.041c-1.748.809-1.69 3.441.095 4.365 2.23 1.153 4.495-1.984 2.78-3.851-.639-.695-1.971-.933-2.875-.514m7.15.004c-1.708.774-1.639 3.455.112 4.361 1.902.983 4.238-1.33 3.254-3.223-.621-1.193-2.124-1.701-3.366-1.138m7.113.066c-1.654.912-1.545 3.403.187 4.305 1.905.991 4.224-1.328 3.233-3.233-.653-1.254-2.207-1.742-3.42-1.072m7.404-.147c-2.342 1.019-1.557 4.686 1.002 4.686 2.257 0 3.279-3.08 1.462-4.406-.485-.354-1.92-.517-2.464-.28m7.244-.011c-2.403 1.065-1.687 4.697.925 4.697 2.401 0 3.331-3.406 1.237-4.529-.562-.301-1.667-.387-2.162-.168m7.172-.019c-1.799.658-1.956 3.327-.258 4.377 2.033 1.257 4.447-1.161 3.309-3.314-.491-.929-1.989-1.451-3.051-1.063m7.084.041c-.71.294-1.417 1.382-1.417 2.183 0 1.703 2.022 3.006 3.488 2.248 2.815-1.456.858-5.641-2.071-4.431m7.25.025c-1.742.677-1.841 3.356-.159 4.301 1.637.92 3.492-.194 3.492-2.097 0-1.808-1.612-2.874-3.333-2.204m7.083.041c-1.748.809-1.69 3.441.095 4.365 2.23 1.153 4.495-1.984 2.78-3.851-.639-.695-1.971-.933-2.875-.514m7.149.004c-1.738.788-1.67 3.439.113 4.361 1.902.983 4.238-1.33 3.254-3.223-.621-1.193-2.124-1.701-3.367-1.138m7.121.047c-1.684.858-1.578 3.409.18 4.324 1.905.991 4.224-1.328 3.233-3.233a2.55 2.55 0 0 0-3.413-1.091m7.397-.128c-2.353 1.024-1.569 4.686 1.002 4.686 2.257 0 3.279-3.08 1.462-4.406-.485-.354-1.92-.517-2.464-.28m7.166.009c-2.357.962-1.562 4.677 1 4.677 2.411 0 3.342-3.402 1.24-4.529-.587-.315-1.657-.385-2.24-.148m7.149.006c-1.722.696-1.817 3.306-.157 4.332 2.033 1.257 4.447-1.161 3.309-3.314-.514-.973-2.041-1.466-3.152-1.018m7.268-.045c-1.281.468-1.868 2.24-1.146 3.463 1.261 2.137 4.479 1.31 4.479-1.151 0-1.793-1.641-2.931-3.333-2.312m7.069.119c-1.665.725-1.729 3.31-.104 4.223 1.738.978 3.535-.116 3.535-2.15 0-1.781-1.718-2.819-3.431-2.073m7.164-.009c-2.219 1.01-1.321 4.606 1.149 4.606 1.975 0 3.093-2.626 1.743-4.095-.642-.698-1.966-.932-2.892-.511m7.166.001c-1.738.788-1.67 3.439.113 4.361 1.933 1 4.255-1.299 3.254-3.223-.621-1.193-2.124-1.701-3.367-1.138m7.121.047c-1.684.858-1.578 3.409.18 4.324 1.921.999 4.232-1.312 3.233-3.233a2.55 2.55 0 0 0-3.413-1.091m14.563-.119c-2.357.962-1.562 4.677 1 4.677 2.411 0 3.342-3.402 1.24-4.529-.587-.315-1.657-.385-2.24-.148M8.417 79.256c-2.253 1.143-1.394 4.577 1.145 4.577.731 0 1.394-.379 1.98-1.131 1.488-1.912-.919-4.566-3.125-3.446m21.666-.096c-1.243.518-1.795 2.271-1.079 3.43 1.653 2.675 5.591.517 4.242-2.325-.479-1.01-2.063-1.563-3.163-1.105m7.268-.042c-1.833.727-2 3.311-.281 4.374 2.045 1.263 4.458-1.147 3.314-3.311-.488-.924-2.024-1.462-3.033-1.063m7.151.006c-.332.13-1.067.874-1.308 1.325-.992 1.853 1.421 4.109 3.335 3.119 2.732-1.413.837-5.568-2.027-4.444m7.081.137c-2.216 1.147-1.404 4.572 1.084 4.572 2.451 0 3.302-3.519 1.103-4.562-.717-.341-1.541-.344-2.187-.01m7.167 0c-2.2 1.142-1.385 4.572 1.086 4.572 2.455 0 3.304-3.517 1.102-4.562-.719-.341-1.542-.345-2.188-.01m7.126.013c-1.661.819-1.61 3.488.082 4.295 1.141.545 2.222.241 3.084-.867 1.507-1.937-.901-4.544-3.166-3.428m7.134.031c-.821.44-1.212 1.243-1.131 2.321.156 2.085 2.555 2.954 4.044 1.464 1.976-1.976-.438-5.113-2.913-3.785m21.841-.187c-1.833.727-2 3.311-.281 4.374 2.045 1.263 4.458-1.147 3.314-3.311-.488-.924-2.024-1.462-3.033-1.063m7.151.006c-.332.13-1.067.874-1.308 1.325-.992 1.853 1.421 4.109 3.335 3.119 2.732-1.413.837-5.568-2.027-4.444m7.081.137c-2.216 1.147-1.404 4.572 1.084 4.572 2.451 0 3.302-3.519 1.103-4.562-.717-.341-1.541-.344-2.187-.01m7.167 0c-2.193 1.138-1.368 4.572 1.097 4.572 2.453 0 3.294-3.517 1.091-4.562-.719-.341-1.542-.345-2.188-.01m64.626.004c-1.661.848-1.611 3.497.082 4.304 1.141.545 2.222.241 3.084-.867 1.503-1.931-.934-4.577-3.166-3.437m7.137.029c-1.654.913-1.545 3.404.187 4.305 1.931 1.005 4.237-1.301 3.233-3.232-.64-1.229-2.232-1.728-3.42-1.073m14.57-.134c-1.243.518-1.795 2.271-1.079 3.43 1.285 2.08 4.274 1.407 4.454-1.002a2.415 2.415 0 0 0-3.375-2.428m14.419-.036c-.332.13-1.067.874-1.308 1.325-.992 1.853 1.421 4.109 3.335 3.119 2.732-1.413.837-5.568-2.027-4.444m7.081.137c-2.216 1.147-1.404 4.572 1.084 4.572 2.461 0 3.311-3.515 1.103-4.562-.717-.341-1.541-.344-2.187-.01m7.167 0c-2.193 1.138-1.368 4.572 1.097 4.572 2.453 0 3.294-3.517 1.091-4.562-.719-.341-1.542-.345-2.188-.01m7.126.004c-1.661.848-1.611 3.497.082 4.304 2.051.978 4.333-1.231 3.308-3.202-.624-1.199-2.198-1.711-3.39-1.102m7.137.029c-1.654.913-1.545 3.404.187 4.305 1.931 1.005 4.237-1.301 3.233-3.232-.64-1.229-2.232-1.728-3.42-1.073m7.404-.146c-2.342 1.019-1.557 4.685 1.002 4.685 3.013 0 3.222-4.589.218-4.775-.488-.03-1.037.01-1.22.09m7.166.012c-1.243.518-1.795 2.271-1.079 3.43 1.285 2.08 4.274 1.407 4.454-1.002a2.415 2.415 0 0 0-3.375-2.428m7.268-.042c-1.833.727-2 3.311-.281 4.374 2.045 1.263 4.458-1.147 3.314-3.311-.488-.924-2.024-1.462-3.033-1.063m7.151.006c-.332.13-1.067.874-1.308 1.325-.998 1.865 1.42 4.107 3.356 3.11 2.723-1.403.806-5.555-2.048-4.435m7.081.137c-2.216 1.147-1.404 4.572 1.084 4.572 2.461 0 3.311-3.515 1.103-4.562-.717-.341-1.541-.344-2.187-.01m7.167 0c-2.193 1.138-1.368 4.572 1.097 4.572 2.463 0 3.303-3.512 1.091-4.562-.719-.341-1.542-.345-2.188-.01m7.167-.015c-2.254 1.188-1.392 4.587 1.164 4.587 1.693 0 2.951-1.994 2.185-3.466-.616-1.184-2.214-1.719-3.349-1.121m7.126.019c-1.696.865-1.604 3.418.157 4.334 1.931 1.005 4.237-1.301 3.233-3.232-.624-1.199-2.198-1.711-3.39-1.102m7.374-.117c-2.353 1.024-1.569 4.685 1.002 4.685 3.013 0 3.222-4.589.218-4.775-.488-.03-1.037.01-1.22.09m7.157.012c-2.337.946-1.532 4.673 1.009 4.673 2.411 0 3.342-3.401 1.24-4.528-.59-.317-1.656-.385-2.249-.145m7.277-.042c-2.468.978-1.658 4.715 1.022 4.715 2.312 0 3.173-3.451 1.13-4.527-.552-.291-1.65-.386-2.152-.188m7.167 0c-2.441.968-1.649 4.715.997 4.715 2.457 0 3.295-3.515 1.088-4.562-.553-.263-1.612-.34-2.085-.153m7.017.16c-1.691.833-1.7 3.373-.016 4.232.785.4 1.683.414 2.279.036 2.695-1.712.594-5.676-2.263-4.268m7.215-.022c-2.264 1.149-1.392 4.577 1.164 4.577 2.412 0 3.203-3.528 1.024-4.562-.715-.339-1.539-.345-2.188-.015m21.667-.108c-2.353 1.024-1.569 4.685 1.002 4.685 3.013 0 3.222-4.589.218-4.775-.488-.03-1.037.01-1.22.09m7.157.012c-2.337.946-1.532 4.673 1.009 4.673 2.411 0 3.342-3.401 1.24-4.528-.59-.317-1.656-.385-2.249-.145M37.351 86.285c-.822.326-1.518 1.379-1.518 2.298 0 2.088 2.622 3.206 4.086 1.743 1.868-1.868-.127-5.008-2.568-4.041m6.966.174c-1.216.816-1.671 2.068-1.123 3.092 1.266 2.366 4.639 1.656 4.639-.977 0-1.88-2.038-3.106-3.516-2.115m7.266-.031c-2.512 1.304-1.146 5.027 1.653 4.502 2.081-.39 2.46-3.579.534-4.493-.718-.34-1.541-.344-2.187-.009m7.167 0c-2.495 1.295-1.146 5.034 1.625 4.506 2.127-.405 2.523-3.566.563-4.496-.719-.341-1.542-.345-2.188-.01m7.167-.006c-1.681.834-1.665 3.52.025 4.327 1.029.491 2.023.286 2.91-.601 1.855-1.855-.551-4.908-2.935-3.726m7.166.005c-1.665.842-1.624 3.516.065 4.336 1.574.765 3.519-.439 3.519-2.177 0-1.768-1.988-2.966-3.584-2.159m7.334-.1c-1.477.615-1.867 2.801-.706 3.962a2.39 2.39 0 0 0 3.4-.011c1.854-1.854-.265-4.963-2.694-3.951m14.434-.042c-.822.326-1.518 1.379-1.518 2.298 0 2.852 4.327 3.308 4.782.505.319-1.966-1.479-3.51-3.264-2.803m6.966.174c-1.216.816-1.671 2.068-1.123 3.092 1.266 2.366 4.639 1.656 4.639-.977 0-1.88-2.038-3.106-3.516-2.115m7.266-.031c-2.512 1.304-1.146 5.027 1.653 4.502 2.081-.39 2.46-3.579.534-4.493-.718-.34-1.541-.344-2.187-.009m71.834-.006c-1.703.845-1.663 3.522.065 4.346 1.573.751 3.518-.455 3.518-2.182 0-1.766-1.978-2.96-3.583-2.164m7.166-.004c-1.665.873-1.625 3.524.065 4.345 2.021.982 4.306-1.266 3.285-3.23-.616-1.183-2.209-1.713-3.35-1.115m7.334-.1c-1.485.658-1.867 2.809-.706 3.971a2.39 2.39 0 0 0 3.4-.011c1.839-1.839-.321-5.013-2.694-3.96m7.25-.043c-.805.324-1.5 1.393-1.5 2.308 0 2.134 2.613 3.215 4.122 1.706 1.795-1.795-.271-4.957-2.622-4.014m7.184.01c-.822.326-1.518 1.379-1.518 2.298 0 2.852 4.327 3.308 4.782.505.319-1.966-1.479-3.51-3.264-2.803m6.966.174c-.942.633-1.317 1.237-1.317 2.124 0 2.188 2.687 3.219 4.236 1.625 1.859-1.914-.719-5.225-2.919-3.749m7.266-.031c-2.512 1.304-1.146 5.027 1.653 4.502 2.081-.39 2.46-3.579.534-4.493-.718-.34-1.541-.344-2.187-.009m7.167 0c-2.508 1.301-1.147 5.027 1.645 4.504 2.116-.397 2.499-3.566.543-4.494-.719-.341-1.542-.345-2.188-.01m7.167-.006c-1.703.845-1.663 3.522.065 4.346 1.573.751 3.518-.455 3.518-2.182 0-1.766-1.978-2.96-3.583-2.164m7.166-.004c-1.665.873-1.625 3.524.065 4.345 2.021.982 4.306-1.266 3.285-3.23-.616-1.183-2.209-1.713-3.35-1.115m7.334-.1c-1.485.658-1.867 2.809-.706 3.971a2.39 2.39 0 0 0 3.4-.011c1.839-1.839-.321-5.013-2.694-3.96m7.25-.043c-.805.324-1.5 1.393-1.5 2.308 0 2.134 2.613 3.215 4.122 1.706 1.795-1.795-.271-4.957-2.622-4.014m7.184.01c-.822.326-1.518 1.379-1.518 2.298 0 2.852 4.327 3.308 4.782.505.319-1.966-1.479-3.51-3.264-2.803m6.966.174c-.942.633-1.317 1.237-1.317 2.124 0 2.176 2.671 3.212 4.239 1.645 1.884-1.884-.722-5.245-2.922-3.769m7.266-.031c-2.512 1.304-1.146 5.027 1.653 4.502 2.081-.39 2.46-3.579.534-4.493-.718-.34-1.541-.344-2.187-.009m7.167 0c-2.509 1.302-1.146 5.027 1.648 4.503 2.125-.399 2.505-3.56.54-4.493-.719-.341-1.542-.345-2.188-.01m7.183-.007c-1.97 1.027-1.625 4.111.504 4.511 2.745.514 4.222-2.793 1.939-4.344-.718-.488-1.699-.555-2.443-.167m7.15-.003c-1.665.873-1.625 3.524.065 4.345 2.021.982 4.306-1.266 3.285-3.23-.616-1.183-2.209-1.713-3.35-1.115m7.334-.1c-1.485.658-1.867 2.809-.706 3.971a2.39 2.39 0 0 0 3.4-.011c1.839-1.839-.321-5.013-2.694-3.96m7.166 0c-1.477.655-1.867 2.809-.716 3.96.985.985 2.326 1.02 3.327.086 1.962-1.83-.167-5.13-2.611-4.046m7.268-.033c-.822.326-1.518 1.379-1.518 2.298 0 2.864 4.325 3.32 4.782.505.319-1.966-1.479-3.51-3.264-2.803m6.773.303c-2.337 1.588-.67 5.045 2.098 4.351 1.534-.385 2.205-2.769 1.103-3.922-.927-.97-2.162-1.135-3.201-.429m7.411-.143c-1.719.847-1.702 3.463.027 4.284.74.351 1.755.346 2.276-.011 2.624-1.799.536-5.673-2.303-4.273m7.215-.022c-1.96.994-1.609 4.109.507 4.506 1.729.324 2.91-.62 2.91-2.326 0-1.918-1.743-3.03-3.417-2.18m21.667-.105c-1.485.658-1.867 2.809-.706 3.971a2.39 2.39 0 0 0 3.4-.011c1.839-1.839-.321-5.013-2.694-3.96M44.285 93.656c-2.445 1.566-1.071 4.977 1.788 4.44 2.135-.4 2.461-3.466.477-4.488-.685-.353-1.673-.332-2.265.048m7.27-.024c-1.929 1.039-1.565 4.07.536 4.464 2.762.518 4.196-3.177 1.724-4.439-.775-.395-1.558-.404-2.26-.025m7.214-.025c-2.503 1.356-1.187 5.019 1.614 4.494 2.096-.393 2.509-3.469.598-4.444-.759-.387-1.556-.405-2.212-.05m7.142 0c-1.685.842-1.665 3.505.032 4.311 2.159 1.024 4.448-1.354 3.218-3.343-.684-1.108-2.116-1.534-3.25-.968m7.172 0c-1.617.818-1.659 3.388-.07 4.265 1.188.656 2.78.157 3.42-1.072 1.031-1.983-1.316-4.221-3.35-3.193m7.167.041c-1.148.718-1.571 2.056-1.013 3.204.697 1.435 2.736 1.752 3.885.604 1.933-1.934-.569-5.251-2.872-3.808m7.149.002c-2.051 1.251-1.395 4.293.964 4.471 1.664.125 2.717-.907 2.595-2.542-.133-1.786-2.071-2.836-3.559-1.929m7.148.032c-2.036 1.304-1.348 4.265 1.032 4.443 1.616.12 2.666-.933 2.545-2.553-.137-1.832-2.071-2.854-3.577-1.89m7.238-.026c-2.445 1.566-1.071 4.977 1.788 4.44 2.135-.4 2.461-3.466.477-4.488-.685-.353-1.673-.332-2.265.048m7.27-.024c-1.929 1.039-1.565 4.07.536 4.464 2.762.518 4.196-3.177 1.724-4.439-.775-.395-1.558-.404-2.26-.025m79.028-.025c-1.617.818-1.659 3.388-.07 4.265 1.188.656 2.78.157 3.42-1.072 1.031-1.983-1.316-4.221-3.35-3.193m7.167.041c-2.193 1.373-1.387 4.435 1.167 4.435 1.024 0 1.109-.031 1.705-.627 1.933-1.934-.569-5.251-2.872-3.808m14.297.034c-2.036 1.304-1.348 4.265 1.032 4.443 1.63.121 2.664-.916 2.544-2.553-.135-1.832-2.07-2.854-3.576-1.89m7.238-.026c-2.445 1.566-1.071 4.977 1.788 4.44 2.135-.4 2.461-3.466.477-4.488-.685-.353-1.673-.332-2.265.048m7.27-.024c-2.497 1.346-1.111 4.989 1.697 4.462 2.073-.389 2.463-3.467.563-4.437-.775-.395-1.558-.404-2.26-.025m7.214-.025c-2.549 1.381-1.179 5.018 1.687 4.48 2.061-.387 2.425-3.461.525-4.43-.759-.387-1.556-.405-2.212-.05m7.142 0c-1.212.605-1.648 2.363-.869 3.507 1.326 1.95 4.458.982 4.458-1.378 0-1.721-2.014-2.915-3.589-2.129m7.172 0c-1.666.842-1.626 3.502.065 4.323 1.596.775 3.519-.424 3.519-2.194 0-1.735-2.005-2.926-3.584-2.129m7.167.041c-2.193 1.373-1.387 4.435 1.167 4.435 1.024 0 1.109-.031 1.705-.627 1.933-1.934-.569-5.251-2.872-3.808m7.149.002c-2.051 1.251-1.395 4.293.964 4.471 1.664.125 2.717-.907 2.595-2.542-.133-1.786-2.071-2.836-3.559-1.929m7.148.032c-2.036 1.304-1.348 4.265 1.032 4.443 1.63.121 2.664-.916 2.544-2.553-.135-1.832-2.07-2.854-3.576-1.89m7.238-.026c-2.447 1.567-1.071 4.977 1.791 4.44 2.144-.403 2.467-3.462.474-4.488-.685-.353-1.673-.332-2.265.048m7.27-.024c-2.497 1.346-1.111 4.989 1.697 4.462 2.073-.389 2.463-3.467.563-4.437-.775-.395-1.558-.404-2.26-.025m7.214-.025c-2.549 1.381-1.179 5.018 1.687 4.48 2.061-.387 2.425-3.461.525-4.43-.759-.387-1.556-.405-2.212-.05m7.148.009c-1.439.773-1.776 2.681-.669 3.787 1.579 1.58 4.252.532 4.252-1.667 0-1.723-2.058-2.941-3.583-2.12m7.166-.009c-1.681.85-1.665 3.508.026 4.311 1.645.78 3.558-.392 3.558-2.182 0-1.735-2.005-2.926-3.584-2.129m7.167.036c-1.571.971-1.714 3.046-.283 4.107.836.62 2.385.476 3.155-.294 1.933-1.933-.56-5.241-2.872-3.813m7.167.005c-2.107 1.319-1.471 4.279.963 4.481 1.663.138 2.743-.958 2.583-2.619-.165-1.724-2.125-2.752-3.546-1.862m7.13.034c-2.058 1.318-1.349 4.252 1.075 4.453 1.638.136 2.696-1.013 2.503-2.718-.192-1.71-2.141-2.655-3.578-1.735m7.082.077c-1.984 1.3-1.229 4.178 1.148 4.375 1.587.132 2.556-.786 2.556-2.42 0-1.954-2.051-3.037-3.704-1.955m7.354-.094c-2.06 1.089-1.425 4.21.906 4.451 1.614.166 2.611-.736 2.611-2.366 0-1.922-1.803-2.991-3.517-2.085m7.267-.049c-2.539 1.365-1.184 4.962 1.693 4.495 2.053-.333 2.434-3.487.538-4.454-.764-.39-1.556-.405-2.231-.041m-287.515 7.199c-2.408 1.469-1.224 4.836 1.567 4.454 2.797-.384 2.366-4.768-.469-4.768-.321 0-.815.142-1.098.314m7.167 0c-1.317.803-1.657 2.309-.801 3.544 1.305 1.882 4.399.86 4.399-1.453 0-1.748-2.131-2.986-3.598-2.091m7.181-.005c-1.203.743-1.605 2.156-.954 3.357.89 1.643 3.405 1.526 4.304-.2 1.035-1.991-1.448-4.331-3.35-3.157m7.167.004c-1.734 1.086-1.596 3.728.228 4.363.959.333 1.977.113 2.668-.578 1.912-1.913-.614-5.214-2.896-3.785m7.149.003c-1.714 1.045-1.563 3.73.246 4.36 1.816.632 3.497-.635 3.318-2.501-.166-1.73-2.112-2.745-3.564-1.859m7.138.068c-2.107 1.409-1.305 4.365 1.185 4.365 1.673 0 2.562-.966 2.404-2.612-.168-1.754-2.145-2.719-3.589-1.753m7.242-.059c-2.443 1.564-1.056 4.972 1.804 4.435 1.382-.259 2.205-2.081 1.57-3.475-.489-1.073-2.364-1.607-3.374-.96m7.204.03c-1.876 1.088-1.445 4.096.631 4.407 1.694.254 2.886-.679 2.886-2.26 0-1.979-1.855-3.111-3.517-2.147m64.752-.041c-2.448 1.493-1.193 4.875 1.651 4.448 2.734-.41 2.23-4.762-.553-4.762-.321 0-.815.142-1.098.314m14.348-.005c-1.733 1.071-1.6 3.774.216 4.373 1.703.562 3.368-.565 3.368-2.28 0-1.752-2.126-2.993-3.584-2.093m7.167.004c-1.734 1.086-1.596 3.728.228 4.363 1.816.632 3.498-.635 3.319-2.501-.166-1.723-2.126-2.752-3.547-1.862m7.149.003c-.838.511-1.287 1.391-1.195 2.344.306 3.182 4.992 2.772 4.754-.416-.133-1.785-2.071-2.835-3.559-1.928m7.138.068c-2.006 1.341-1.349 4.227 1.003 4.403 1.671.125 2.707-.91 2.581-2.581-.135-1.81-2.105-2.812-3.584-1.822m7.316-.071c-1.065.568-1.659 2.136-1.161 3.066 1.257 2.349 4.641 1.721 4.641-.861 0-1.957-1.802-3.099-3.48-2.205m7.13.042c-1.876 1.088-1.445 4.096.631 4.407 1.694.254 2.886-.679 2.886-2.26 0-1.979-1.855-3.111-3.517-2.147m7.252-.041c-2.448 1.493-1.193 4.875 1.651 4.448 2.734-.41 2.23-4.762-.553-4.762-.321 0-.815.142-1.098.314m7.167 0c-1.317.803-1.657 2.309-.801 3.544 1.305 1.882 4.399.86 4.399-1.453 0-1.748-2.131-2.986-3.598-2.091m7.181-.005c-1.733 1.071-1.6 3.774.216 4.373 1.703.562 3.368-.565 3.368-2.28 0-1.752-2.126-2.993-3.584-2.093m14.316.007c-.838.511-1.287 1.391-1.195 2.344.306 3.188 4.992 2.778 4.754-.416-.133-1.785-2.071-2.835-3.559-1.928m7.138.068c-2.006 1.341-1.349 4.227 1.003 4.403 1.671.125 2.707-.91 2.581-2.581-.135-1.81-2.105-2.812-3.584-1.822m7.316-.071c-1.065.568-1.659 2.136-1.161 3.066 1.257 2.349 4.641 1.732 4.641-.846 0-1.972-1.796-3.117-3.48-2.22m7.13.042c-1.876 1.088-1.445 4.096.631 4.407 1.752.263 2.889-.675 2.882-2.377-.007-1.896-1.879-2.978-3.513-2.03m7.252-.041c-2.448 1.493-1.193 4.875 1.651 4.448 2.734-.41 2.23-4.762-.553-4.762-.321 0-.815.142-1.098.314m6.979.13c-1.623 1.052-1.386 3.642.387 4.228 2.912.961 4.757-2.779 2.134-4.326-.812-.48-1.683-.446-2.521.098m7.369-.135c-.864.534-1.134.966-1.215 1.945-.224 2.694 3.306 3.631 4.565 1.212 1.035-1.991-1.448-4.331-3.35-3.157m7.167 0c-2.436 1.505-1.155 4.93 1.671 4.472 2.23-.362 2.603-3.478.546-4.548-.626-.325-1.623-.291-2.217.076m7.167.004c-1.746 1.094-1.658 3.659.149 4.346 1.865.709 3.583-.548 3.397-2.484-.165-1.723-2.125-2.752-3.546-1.862m7.13.035c-2.037 1.305-1.379 4.249.993 4.446 1.687.14 2.75-.952 2.586-2.657-.166-1.733-2.132-2.716-3.579-1.789m7.082.077c-1.968 1.289-1.247 4.176 1.092 4.37 1.603.133 2.612-.745 2.612-2.272 0-2.064-2.013-3.205-3.704-2.098m7.371-.076c-2.677 1.598-.478 5.687 2.29 4.256 2.17-1.123 1.321-4.605-1.123-4.605-.321 0-.846.157-1.167.349m7.068.088c-.931.631-1.057.865-1.063 1.963-.012 2.254 2.613 3.339 4.114 1.701 1.881-2.052-.758-5.22-3.051-3.664m14.515-.128c-.864.534-1.134.966-1.215 1.945-.224 2.694 3.306 3.631 4.565 1.212 1.035-1.991-1.448-4.331-3.35-3.157m-309.1 7.212c-.836.486-1.15 1.094-1.15 2.232 0 2.134 2.47 3.109 4 1.579 1.974-1.973-.444-5.206-2.85-3.811m7.252-.04c-2.217 1.352-1.443 4.518 1.105 4.518.947 0 1.045-.038 1.667-.654 1.928-1.909-.477-5.264-2.772-3.864m7.167 0c-1.185.722-1.606 2.15-.988 3.346.871 1.685 3.434 1.582 4.342-.173 1.014-1.961-1.477-4.318-3.354-3.173m7.348-.122c-2.326 1.413-1.685 4.64.922 4.64 2.474 0 3.392-2.805 1.424-4.353-.545-.429-1.85-.588-2.346-.287m7.167.009c-2.342 1.35-1.648 4.631.98 4.631 2.667 0 3.382-3.358.987-4.639-.46-.247-1.533-.242-1.967.008m7.166 0c-2.357 1.361-1.651 4.631.999 4.631 2.66 0 3.362-3.359.969-4.639-.461-.247-1.534-.242-1.968.008m6.921.223c-1.197.845-1.487 2.187-.726 3.361 1.051 1.62 3.647 1.373 4.233-.403.758-2.296-1.613-4.295-3.507-2.958m79.231-.11c-2.224 1.356-1.442 4.518 1.118 4.518.962 0 1.056-.036 1.667-.647 1.914-1.915-.497-5.267-2.785-3.871m7.167 0c-2.197 1.339-1.412 4.518 1.115 4.518 1.058 0 1.762-.423 2.239-1.345 1.014-1.961-1.477-4.318-3.354-3.173m21.681-.113c-2.347 1.355-1.643 4.631.995 4.631 2.664 0 3.369-3.357.973-4.639-.461-.247-1.534-.242-1.968.008m14.227.157c-2.242 1.3-1.388 4.474 1.203 4.474.929 0 1.026-.039 1.654-.667 1.977-1.977-.445-5.205-2.857-3.807m7.173-.004c-.836.486-1.15 1.094-1.15 2.232 0 2.134 2.47 3.109 4 1.579 1.974-1.973-.444-5.206-2.85-3.811m14.419-.04c-1.185.722-1.606 2.15-.988 3.346.871 1.685 3.434 1.582 4.342-.173 1.014-1.961-1.477-4.318-3.354-3.173m7.348-.112c-2.29 1.324-1.677 4.63.859 4.63 1.578 0 2.558-.921 2.558-2.404 0-1.636-2.087-2.996-3.417-2.226m7.167-.001c-1.595.919-1.888 2.735-.647 4.012 1.662 1.711 4.406.131 4.01-2.31-.223-1.375-2.197-2.374-3.363-1.702m7.166 0c-2.358 1.362-1.642 4.631 1.015 4.631s3.347-3.358.953-4.639c-.461-.247-1.534-.242-1.968.008m6.921.223c-1.197.845-1.487 2.187-.726 3.361 1.053 1.623 3.643 1.386 4.228-.388.762-2.31-1.6-4.316-3.502-2.973m7.306-.066c-2.242 1.3-1.388 4.474 1.203 4.474.929 0 1.026-.039 1.654-.667 1.977-1.977-.445-5.205-2.857-3.807m7.173-.004c-.836.486-1.15 1.094-1.15 2.232 0 2.134 2.47 3.109 4 1.579 1.974-1.973-.444-5.206-2.85-3.811m7.252-.04c-2.224 1.356-1.442 4.518 1.118 4.518.962 0 1.056-.036 1.667-.647 1.914-1.915-.497-5.267-2.785-3.871m7.167 0c-.923.563-1.235 1.121-1.235 2.207 0 2.569 3.391 3.283 4.589.966 1.014-1.961-1.477-4.318-3.354-3.173m7.348-.112c-2.41 1.393-1.692 4.63 1.026 4.63 1.414 0 2.391-.983 2.391-2.404 0-1.636-2.087-2.996-3.417-2.226m7.167 0c-2.382 1.376-1.679 4.63 1 4.63 2.659 0 3.36-3.359.967-4.639-.461-.247-1.534-.242-1.967.009m7.166-.001c-2.376 1.369-1.664 4.631 1.011 4.631 2.66 0 3.353-3.357.957-4.639-.46-.247-1.533-.242-1.968.008m6.927.207c-2.116 1.561-1.238 4.424 1.357 4.424 1.534 0 2.442-1.125 2.253-2.794-.189-1.682-2.268-2.62-3.61-1.63m7.323-.063c-2.265 1.314-1.46 4.487 1.138 4.487.978 0 1.062-.033 1.696-.667 1.963-1.963-.443-5.207-2.834-3.82m7.15.009c-.836.486-1.15 1.094-1.15 2.232 0 2.134 2.47 3.109 4 1.579 1.974-1.973-.444-5.206-2.85-3.811m21.767-.152c-2.41 1.393-1.692 4.63 1.026 4.63 1.414 0 2.391-.983 2.391-2.404 0-1.636-2.087-2.996-3.417-2.226m-302.609 7.804c-2.16 2.271 1.163 5.562 3.379 3.346.747-.747.915-2.098.374-3.013-.738-1.25-2.714-1.426-3.753-.333m7.167 0c-.597.627-.641.742-.641 1.666 0 2.584 3.386 3.308 4.589.982 1.205-2.33-2.126-4.564-3.948-2.648m7.291-.117a2.454 2.454 0 0 0 .01 3.562c1.463 1.379 4.058.239 4.058-1.784 0-2.019-2.634-3.17-4.068-1.778m7.154.034c-.998 1.028-.994 2.49.011 3.495 1.659 1.659 4.442.033 3.997-2.335-.321-1.713-2.78-2.424-4.008-1.16m7.197-.007c-1.032 1.002-1.04 2.482-.02 3.502 1.247 1.246 3.678.535 3.998-1.17.315-1.679-.68-2.916-2.345-2.916-.954 0-1.077.044-1.633.584m7.522-.299c-2.075 1.287-1.111 4.382 1.364 4.382 1.581 0 2.515-1.192 2.261-2.886-.228-1.515-2.249-2.35-3.625-1.496m122.167 0c-1.448.898-1.433 3.243.027 4.105 2.424 1.432 5.001-1.762 3.02-3.743-.748-.748-2.155-.916-3.047-.362m14.002.389c-2.16 2.271 1.163 5.562 3.379 3.346.747-.747.915-2.098.374-3.013-.738-1.25-2.714-1.426-3.753-.333m7.167 0c-.595.624-.641.745-.641 1.653 0 2.585 3.387 3.319 4.589.995 1.205-2.33-2.126-4.564-3.948-2.648m14.445-.083c-.997 1.027-.994 2.438.008 3.47 1.645 1.694 4.448.075 4-2.31-.321-1.713-2.78-2.424-4.008-1.16m7.197-.007c-1.031 1.001-1.039 2.43-.022 3.477 1.248 1.285 3.674.592 3.999-1.142.45-2.398-2.269-3.994-3.977-2.335m7.522-.299c-2.075 1.287-1.111 4.382 1.364 4.382 1.581 0 2.515-1.192 2.261-2.886-.228-1.515-2.249-2.35-3.625-1.496m7.167 0c-2.072 1.285-1.101 4.382 1.374 4.382 2.168 0 3.204-2.489 1.673-4.02-.748-.748-2.155-.916-3.047-.362m7.173-.004c-.68.422-.979 1.075-.979 2.139 0 2.135 2.47 3.11 4 1.58 2.002-2.001-.61-5.216-3.021-3.719m6.829.393c-2.16 2.271 1.163 5.562 3.379 3.346.747-.747.915-2.098.374-3.013-.738-1.25-2.714-1.426-3.753-.333m7.173-.027c-1.498 1.497-.497 4.02 1.595 4.02 1.176 0 1.602-.208 2.146-1.048 1.559-2.404-1.711-5.002-3.741-2.972m7.262-.088c-.757.673-.989 1.981-.514 2.901 1.124 2.172 4.605 1.32 4.605-1.127 0-2.048-2.544-3.151-4.091-1.774m7.167 0c-.82.729-1.008 2.056-.427 2.997 1.449 2.344 4.956.92 4.445-1.805-.318-1.694-2.67-2.392-4.018-1.192m7.424-.202c-1.941 1.613-1.01 4.31 1.488 4.31 2.177 0 3.144-2.477 1.592-4.076-.719-.739-2.325-.862-3.08-.234m7.328-.072c-2.088 1.444-1.261 4.369 1.239 4.378 1.708.006 2.628-1.115 2.363-2.882-.227-1.512-2.321-2.381-3.602-1.496m14.317-.004c-.68.422-.979 1.075-.979 2.139 0 2.135 2.47 3.11 4 1.58 2.002-2.001-.61-5.216-3.021-3.719m14.002.366c-1.498 1.497-.497 4.02 1.595 4.02 1.176 0 1.602-.208 2.146-1.048 1.559-2.404-1.711-5.002-3.741-2.972m-6.147 2.27c0 .139.148.25.333.25.299 0 .333.111.333 1.083 0 .852.054 1.083.25 1.083.197 0 .25-.231.25-1.083 0-1.044.015-1.083.417-1.083.259 0 .417-.095.417-.25 0-.195-.223-.25-1-.25-.778 0-1 .055-1 .25m2.166 1.071c0 1.512.482 2.104.518.637l.017-.708.206.666c.269.872.749.912.994.084l.172-.584.057.625c.118 1.301.536.748.536-.708 0-1.612-.475-1.96-.854-.625-.295 1.035-.398 1.061-.68.174-.463-1.458-.966-1.229-.966.439m-290.666 3.845c-1.568 1.568-.554 4 1.666 4 1.538 0 2.334-.797 2.334-2.339 0-2.201-2.445-3.216-4-1.661m7.166 0c-.632.633-.666.719-.666 1.687 0 2.593 3.38 3.306 4.589.968 1.195-2.31-2.062-4.515-3.923-2.655m7.305-.122c-.675.618-.889 1.315-.729 2.378.404 2.698 4.758 2.171 4.758-.575 0-1.999-2.563-3.146-4.029-1.803m21.702-.108c-1.869 1.573-.978 4.218 1.425 4.227 1.813.006 2.791-1.374 2.25-3.178-.421-1.405-2.534-2.008-3.675-1.049m85.993.23c-1.513 1.513-.541 4 1.563 4 1.189 0 1.614-.206 2.159-1.047 1.565-2.413-1.684-4.991-3.722-2.953m7.305-.122c-.675.618-.889 1.315-.729 2.378.406 2.708 4.758 2.169 4.758-.589 0-2.02-2.544-3.149-4.029-1.789m7.145.04c-1.017.987-1.037 2.446-.048 3.494 1.209 1.282 3.705.549 4.03-1.184.441-2.351-2.302-3.942-3.982-2.31m14.557-.148c-1.879 1.582-.977 4.218 1.446 4.227 1.803.006 2.772-1.365 2.234-3.161-.431-1.439-2.518-2.044-3.68-1.066m14.167.205c-1.092 1.039-.917 3.014.333 3.753.915.54 2.266.372 3.013-.375 2.216-2.216-1.075-5.539-3.346-3.378m7.16.025c-1.568 1.568-.554 4 1.666 4 .985 0 1.073-.033 1.687-.647.613-.613.647-.701.647-1.686 0-2.22-2.433-3.234-4-1.667m7.166 0c-1.519 1.52-.555 4 1.556 4 1.196 0 1.62-.205 2.166-1.047 1.565-2.413-1.684-4.991-3.722-2.953m7.296-.115a2.44 2.44 0 0 0-.032 3.574c1.463 1.389 4.07.241 4.07-1.792 0-2.027-2.544-3.149-4.038-1.782m14.329.046c-1.04 1.01-1.052 2.412-.03 3.464 1.252 1.289 3.669.62 3.992-1.105.456-2.43-2.238-4.033-3.962-2.359m7.382-.161c-1.879 1.582-.977 4.218 1.446 4.227 1.803.006 2.772-1.365 2.234-3.161-.431-1.439-2.518-2.044-3.68-1.066m7.167 0c-1.914 1.611-.936 4.23 1.58 4.23 2.134 0 3.11-2.47 1.58-4-.871-.87-2.278-.972-3.16-.23m7 .205c-1.092 1.039-.917 3.014.333 3.753.915.54 2.266.372 3.013-.375 2.216-2.216-1.075-5.539-3.346-3.378m7.16.025c-1.568 1.568-.554 4 1.666 4 .985 0 1.073-.033 1.687-.647.613-.613.647-.701.647-1.686 0-2.22-2.433-3.234-4-1.667m7.166 0c-1.519 1.52-.555 4 1.556 4 1.196 0 1.62-.205 2.166-1.047 1.565-2.413-1.684-4.991-3.722-2.953m7.293-.112c-.698.64-.869 1.153-.746 2.242.318 2.819 4.787 2.388 4.787-.463 0-2.029-2.544-3.149-4.041-1.779m7.167 0c-.693.635-.869 1.154-.75 2.211.283 2.513 4.254 2.624 4.722.132.438-2.335-2.25-3.92-3.972-2.343m7.37-.173c-1.92 1.693-1.033 4.285 1.466 4.285 2.246 0 3.218-2.499 1.588-4.082-.769-.747-2.321-.85-3.054-.203m6.892.372c-.636.663-.722.843-.722 1.516 0 2.853 4.343 3.42 4.763.621.383-2.555-2.288-3.968-4.041-2.137m7.166 0c-2.18 2.275 1.236 5.496 3.465 3.266 1.549-1.548.495-4.019-1.715-4.019-1.002 0-1.047.019-1.75.753m-265.505 6.74c-1.116.681-1.438 2.519-.613 3.5 1.181 1.403 2.799 1.321 3.961-.203 1.513-1.984-1.169-4.625-3.348-3.297m7.175.016c-1.537.984-1.362 3.387.309 4.257 1.953 1.015 4.173-1.274 3.205-3.304-.578-1.211-2.358-1.694-3.514-.953m28.616.094c-1.427 1.2-1.269 3.147.327 4.044 2.171 1.22 4.597-1.472 3.153-3.499-.763-1.071-2.527-1.347-3.48-.545m71.66.23c-1.195 1.195-.861 3.127.678 3.923 2.315 1.197 4.538-2.08 2.675-3.943-.974-.973-2.369-.965-3.353.02m7.549-.34c-1.557.95-1.388 3.392.296 4.263 1.915.99 4.235-1.329 3.244-3.245-.668-1.292-2.314-1.766-3.54-1.018m7.175.016c-1.537.984-1.362 3.387.309 4.257 1.955 1.017 4.173-1.274 3.203-3.309-.586-1.227-2.338-1.7-3.512-.948m7.151.032c-2.303 1.61-.158 5.603 2.303 4.286 2.403-1.286 1.722-4.661-.941-4.661-.586 0-.981.109-1.362.375m7.167 0c-1.918 1.341-.955 4.459 1.377 4.459 2.18 0 3.219-2.708 1.631-4.249-.767-.745-2.109-.838-3.008-.21m7.131.062c-1.039.874-1.29 2.064-.66 3.132 1.542 2.612 5.288.78 4.331-2.119-.462-1.399-2.533-1.97-3.671-1.013m7.167 0c-1.427 1.2-1.269 3.147.327 4.044 2.424 1.362 4.805-1.842 2.833-3.814-.871-.87-2.278-.973-3.16-.23m7 .204c-2.089 1.987.528 5.316 2.946 3.748.839-.544 1.047-.971 1.047-2.147 0-2.086-2.45-3.069-3.993-1.601m7.16.026c-1.195 1.195-.861 3.127.678 3.923 2.315 1.197 4.538-2.08 2.675-3.943-.974-.973-2.369-.965-3.353.02m7.549-.34c-1.557.95-1.388 3.392.296 4.263 1.947 1.007 4.251-1.297 3.244-3.245-.668-1.292-2.314-1.766-3.54-1.018m7.175.016c-1.537.984-1.362 3.387.309 4.257 1.971 1.025 4.181-1.258 3.203-3.309-.586-1.227-2.338-1.7-3.512-.948m7.151.032c-2.333 1.631-.162 5.584 2.344 4.267 2.37-1.245 1.651-4.642-.982-4.642-.586 0-.981.109-1.362.375m7.167 0c-1.917 1.34-.955 4.459 1.374 4.459 2.198 0 3.234-2.695 1.634-4.249-.767-.745-2.109-.838-3.008-.21m14.298.062c-1.427 1.2-1.269 3.147.327 4.044 2.424 1.362 4.805-1.842 2.833-3.814-.871-.87-2.278-.973-3.16-.23m7 .204c-2.089 1.987.528 5.316 2.946 3.748.839-.544 1.047-.971 1.047-2.147 0-2.086-2.45-3.069-3.993-1.601m7.16.026c-2.038 2.038.539 5.287 2.952 3.722.843-.546 1.048-.97 1.048-2.166 0-2.111-2.481-3.076-4-1.556m21.618-.062c-1.61 1.563-.58 4.229 1.634 4.229 1.735 0 2.937-1.938 2.183-3.519-.688-1.439-2.684-1.811-3.817-.71m7.427-.23c-1.941 1.366-.99 4.459 1.371 4.459 2.198 0 3.234-2.695 1.634-4.249-.767-.745-2.111-.839-3.005-.21m6.843.378c-.855.893-.976 1.798-.375 2.816 1.545 2.619 5.29.787 4.331-2.119-.538-1.63-2.698-2.01-3.956-.697m7.166 0c-1.173 1.225-.911 2.871.591 3.715 2.451 1.378 4.846-1.81 2.855-3.801-1.035-1.035-2.404-1-3.446.086M73.01 136.805c-.821.44-1.212 1.243-1.131 2.321.156 2.085 2.555 2.954 4.044 1.464 1.981-1.98-.432-5.116-2.913-3.785m7.407-.148c-1.84.75-1.871 3.495-.05 4.442 1.97 1.025 4.2-1.252 3.229-3.298-.483-1.019-2.079-1.593-3.179-1.144m7.244-.02c-2.401 1.064-1.688 4.696.922 4.696 2.416 0 3.354-3.426 1.234-4.508-.628-.32-1.656-.41-2.156-.188m79.006.046c-1.283.499-1.834 2.624-.953 3.672 1.537 1.826 4.285.92 4.286-1.413 0-1.863-1.586-2.938-3.333-2.259m7.083.041c-2.204 1.021-1.35 4.609 1.097 4.609 2.935 0 3.238-4.512.32-4.762-.587-.05-1.097.005-1.417.153m7.15.005c-1.672.757-1.635 3.533.058 4.34 2.051.978 4.333-1.231 3.308-3.202-.621-1.193-2.124-1.701-3.366-1.138m7.113.065c-1.654.913-1.545 3.404.187 4.305 1.931 1.005 4.237-1.301 3.233-3.232-.653-1.255-2.207-1.742-3.42-1.073m7.404-.146c-2.342 1.019-1.557 4.685 1.002 4.685 2.263 0 3.283-3.075 1.462-4.405-.485-.354-1.92-.517-2.464-.28m7.244-.011c-2.401 1.064-1.688 4.696.922 4.696 2.411 0 3.342-3.401 1.24-4.528-.562-.302-1.667-.388-2.162-.168m7.172-.019c-1.272.465-1.884 2.304-1.158 3.479 1.27 2.054 4.27 1.399 4.445-.971.137-1.855-1.55-3.143-3.287-2.508m7.083.039c-.431.174-1.236 1.147-1.36 1.643-.482 1.919 1.721 3.674 3.473 2.768 2.799-1.447.811-5.598-2.113-4.411m7.251.026c-1.283.499-1.834 2.624-.953 3.672 1.537 1.826 4.285.92 4.286-1.413 0-1.863-1.586-2.938-3.333-2.259m14.233.046c-1.672.757-1.635 3.533.058 4.34 2.051.978 4.333-1.231 3.308-3.202-.621-1.193-2.124-1.701-3.366-1.138m7.113.065c-1.654.913-1.545 3.404.187 4.305 1.931 1.005 4.237-1.301 3.233-3.232-.653-1.255-2.207-1.742-3.42-1.073m7.404-.146c-2.342 1.019-1.557 4.685 1.002 4.685 2.263 0 3.283-3.075 1.462-4.405-.485-.354-1.92-.517-2.464-.28m28.75.035c-1.283.499-1.834 2.624-.953 3.672 1.537 1.826 4.285.92 4.286-1.413 0-1.863-1.586-2.938-3.333-2.259m28.75-.035c-2.353 1.024-1.569 4.685 1.002 4.685 2.263 0 3.283-3.075 1.462-4.405-.485-.354-1.92-.517-2.464-.28m7.166.009c-2.357.962-1.562 4.676 1 4.676 2.411 0 3.342-3.401 1.24-4.528-.587-.315-1.657-.386-2.24-.148m-229.916 7.127c-.787.288-1.5 1.381-1.5 2.299 0 3 4.506 3.262 4.793.279.177-1.851-1.56-3.211-3.293-2.578m78.916.143c-2.524 1.307-1.157 5.031 1.653 4.503 2.081-.39 2.46-3.579.534-4.493-.717-.34-1.541-.344-2.187-.01m7.167.001c-2.503 1.299-1.136 5.025 1.652 4.502 2.097-.393 2.476-3.571.536-4.492-.719-.341-1.542-.345-2.188-.01m7.126.003c-1.649.842-1.608 3.519.066 4.318 2.06.984 4.354-1.235 3.324-3.216-.624-1.198-2.198-1.71-3.39-1.102m7.137.03c-1.623.896-1.541 3.488.135 4.302 1.574.765 3.519-.439 3.519-2.177 0-1.815-2.053-3.008-3.654-2.125m7.404-.143c-1.485.658-1.867 2.809-.706 3.971a2.39 2.39 0 0 0 3.4-.011c1.839-1.839-.321-5.013-2.694-3.96m7.25-.034c-.787.288-1.5 1.381-1.5 2.299 0 3.037 4.56 3.247 4.787.221.139-1.854-1.555-3.153-3.287-2.52m7.184.001c-1.796.712-2.023 3.186-.394 4.294 2.082 1.414 4.619-.978 3.427-3.232-.488-.924-2.024-1.462-3.033-1.062m7.151.005c-1.137.446-1.856 2.237-1.309 3.259 1.27 2.373 4.637 1.691 4.64-.94.001-1.786-1.689-2.963-3.331-2.319m7.081.137c-2.526 1.308-1.157 5.03 1.656 4.503 2.09-.392 2.467-3.574.531-4.493-.717-.34-1.541-.344-2.187-.01m7.167.001c-2.503 1.299-1.136 5.025 1.652 4.502 2.097-.393 2.476-3.571.536-4.492-.719-.341-1.542-.345-2.188-.01m14.263.033c-1.623.896-1.541 3.488.135 4.302 1.574.765 3.519-.439 3.519-2.177 0-1.815-2.053-3.008-3.654-2.125m64.904-.146c-2.412 1.049-1.649 4.602.989 4.602 3.092 0 3.314-4.502.231-4.692-.488-.031-1.037.01-1.22.09m7.157.011c-1.504.61-1.885 2.774-.696 3.963 1.485 1.486 3.918.608 4.075-1.471.144-1.916-1.608-3.209-3.379-2.492m-222.723 7.126c-.822.325-1.518 1.379-1.518 2.298 0 2.851 4.327 3.308 4.782.505.319-1.966-1.479-3.511-3.264-2.803m6.966.174c-.942.632-1.317 1.237-1.317 2.124 0 2.188 2.687 3.219 4.236 1.625 1.859-1.914-.719-5.225-2.919-3.749m7.266-.031c-2.53 1.313-1.154 5.029 1.666 4.499 2.081-.39 2.45-3.575.521-4.49-.718-.341-1.541-.344-2.187-.009m7.21-.021c-2.576 1.344-1.212 5.052 1.659 4.514 2.085-.391 2.428-3.562.486-4.484-.704-.334-1.541-.346-2.145-.03m7.124.015c-1.703.844-1.663 3.521.065 4.346 1.596.762 3.518-.431 3.518-2.185 0-1.763-1.979-2.957-3.583-2.161m43.166.006c-2.532 1.314-1.154 5.028 1.669 4.499 2.09-.392 2.456-3.57.518-4.49-.718-.341-1.541-.344-2.187-.009m7.21-.021c-2.576 1.344-1.212 5.052 1.659 4.514 2.085-.391 2.428-3.562.486-4.484-.704-.334-1.541-.346-2.145-.03m7.124.015c-1.703.844-1.663 3.521.065 4.346 1.596.762 3.518-.431 3.518-2.185 0-1.763-1.979-2.957-3.583-2.161m7.166-.005c-1.665.873-1.625 3.525.065 4.346 1.589.772 3.519-.424 3.519-2.18 0-1.762-2.023-2.984-3.584-2.166m7.334-.1c-2.381 1.056-1.61 4.599 1 4.599 3.093 0 3.304-4.501.22-4.692-.488-.03-1.037.012-1.22.093m7.25-.042c-2.28.915-1.799 4.45.637 4.684 1.651.159 2.613-.73 2.613-2.415 0-1.696-1.708-2.888-3.25-2.269m6.79.313c-2.283 1.551-.83 4.864 1.909 4.349 2.219-.418 2.462-3.799.331-4.622-.711-.274-1.592-.167-2.24.273m7.36-.129c-.942.632-1.317 1.237-1.317 2.124 0 2.188 2.687 3.219 4.236 1.625 1.859-1.914-.719-5.225-2.919-3.749m7.266-.031c-2.532 1.314-1.154 5.028 1.669 4.499 2.09-.392 2.456-3.57.518-4.49-.718-.341-1.541-.344-2.187-.009m7.21-.021c-2.579 1.345-1.212 5.052 1.663 4.513 2.093-.393 2.433-3.557.482-4.483-.704-.334-1.541-.346-2.145-.03m7.124.015c-1.703.844-1.663 3.521.065 4.346 1.596.762 3.518-.431 3.518-2.185 0-1.763-1.979-2.957-3.583-2.161m79.166-.105c-2.226.988-1.665 4.413.761 4.646 1.64.158 2.573-.719 2.573-2.419 0-1.74-1.768-2.921-3.334-2.227m14.041.271c-2.337 1.588-.67 5.045 2.098 4.35 1.534-.385 2.205-2.768 1.103-3.921-.927-.97-2.162-1.136-3.201-.429m7.411-.144c-1.719.847-1.702 3.464.027 4.285 1.744.827 3.438-.235 3.438-2.156 0-1.892-1.757-2.971-3.465-2.129m21.548-.027c-1.665.873-1.625 3.525.065 4.346 1.589.772 3.519-.424 3.519-2.18 0-1.762-2.023-2.984-3.584-2.166m-258.798 7.238c-2.58 1.653-.815 5.317 2.099 4.356 1.479-.489 1.995-2.822.873-3.945-.731-.731-2.163-.929-2.972-.411m7.207.006c-1.834.969-1.431 4.054.58 4.431 1.688.317 2.928-.656 2.928-2.297 0-1.963-1.782-3.047-3.508-2.134m7.252-.054c-1.781.889-1.619 3.851.241 4.408 1.786.535 3.182-.437 3.182-2.215 0-1.916-1.743-3.032-3.423-2.193m7.158.041c-1.317.803-1.657 2.309-.801 3.544 1.305 1.882 4.399.86 4.399-1.453 0-1.748-2.131-2.986-3.598-2.091m7.181-.005c-1.687 1.042-1.651 3.453.065 4.287 1.614.783 3.519-.405 3.519-2.194 0-1.752-2.126-2.993-3.584-2.093m43.161-.036c-1.781.889-1.619 3.851.241 4.408 1.786.535 3.182-.437 3.182-2.215 0-1.916-1.743-3.032-3.423-2.193m7.167 0c-1.257.628-1.651 2.371-.81 3.585 1.305 1.882 4.399.86 4.399-1.453 0-1.724-2.012-2.919-3.589-2.132m7.172.036c-1.687 1.042-1.651 3.453.065 4.287 1.614.783 3.519-.405 3.519-2.194 0-1.752-2.126-2.993-3.584-2.093m7.167.004c-2.171 1.36-1.389 4.436 1.128 4.436 1.667 0 2.573-.964 2.419-2.574-.166-1.723-2.126-2.752-3.547-1.862m7.149.003c-2.049 1.249-1.385 4.294.975 4.471 1.653.124 2.706-.912 2.584-2.543-.133-1.785-2.071-2.835-3.559-1.928m7.137.068c-2.007 1.34-1.348 4.227 1.004 4.403 1.671.125 2.707-.91 2.581-2.581-.135-1.81-2.104-2.811-3.585-1.822m7.352-.086c-2.726 1.469-.956 5.353 1.996 4.379 1.479-.489 1.995-2.822.873-3.945-.722-.722-1.981-.913-2.869-.434m7.167 0c-1.913 1.031-1.561 4.07.517 4.46 1.688.317 2.928-.656 2.928-2.297 0-1.929-1.792-3.054-3.445-2.163m7.189-.025c-1.781.889-1.619 3.851.241 4.408 1.786.535 3.182-.437 3.182-2.215 0-1.916-1.743-3.032-3.423-2.193m7.167 0c-1.257.628-1.651 2.371-.81 3.585 1.305 1.882 4.399.86 4.399-1.453 0-1.724-2.012-2.919-3.589-2.132m79.006.04c-2.128 1.333-1.458 4.281 1.02 4.486 1.603.133 2.683-.989 2.526-2.624-.165-1.723-2.125-2.752-3.546-1.862m7.13.035c-2.044 1.309-1.366 4.25 1.025 4.449 1.654.137 2.717-.97 2.554-2.66-.166-1.733-2.132-2.716-3.579-1.789m7.082.077c-1.936 1.268-1.257 4.149 1.03 4.369 1.667.16 2.674-.747 2.674-2.409 0-1.959-2.049-3.044-3.704-1.96m36.121-.116c-2.226 1.375-1.42 4.44 1.167 4.44 1.626 0 2.533-.98 2.38-2.574-.166-1.721-2.118-2.748-3.547-1.866m7.167.004c-2.128 1.333-1.458 4.281 1.02 4.486 1.603.133 2.683-.989 2.526-2.624-.165-1.723-2.125-2.752-3.546-1.862M94.522 165.58c-1.239.875-1.524 2.169-.744 3.373 1.051 1.62 3.647 1.373 4.233-.403.749-2.268-1.624-4.288-3.489-2.97m7.288-.054c-2.242 1.3-1.388 4.474 1.203 4.474.929 0 1.026-.039 1.654-.667 1.97-1.97-.454-5.201-2.857-3.807m7.161.003c-.886.514-1.202 1.197-1.103 2.387.247 2.975 4.632 2.809 4.632-.174 0-2.058-1.824-3.201-3.529-2.213m7.264-.047c-2.24 1.366-1.413 4.518 1.185 4.518.884 0 .999-.046 1.6-.647 1.919-1.92-.491-5.27-2.785-3.871m7.167 0c-2.197 1.339-1.412 4.518 1.115 4.518 1.058 0 1.762-.423 2.239-1.345 1.025-1.982-1.457-4.33-3.354-3.173m7.348-.112c-1.608.929-1.909 2.794-.653 4.049 1.442 1.442 4.07.265 4.07-1.823 0-1.636-2.087-2.996-3.417-2.226m7.167-.001c-2.284 1.316-1.653 4.631.881 4.631 2.743 0 3.524-3.335 1.086-4.639-.46-.247-1.533-.242-1.967.008m7.166-.005c-2.417 1.362-1.605 4.636 1.149 4.636 2.519 0 3.121-3.408.819-4.639-.457-.245-1.53-.243-1.968.003m50.334.005c-1.396.804-1.836 2.602-.917 3.747 1.628 2.029 4.703.56 4.28-2.045-.223-1.375-2.197-2.374-3.363-1.702m7.166-.005c-2.428 1.368-1.604 4.636 1.169 4.636 2.511 0 3.098-3.409.799-4.639-.457-.245-1.53-.243-1.968.003m6.939.216c-1.367.966-1.55 2.254-.522 3.686.945 1.315 3.487.871 4.006-.701.758-2.296-1.6-4.317-3.484-2.985m7.288-.054c-2.232 1.295-1.378 4.474 1.203 4.474.929 0 1.026-.039 1.654-.667 1.977-1.977-.445-5.205-2.857-3.807m7.161.003c-.886.514-1.202 1.197-1.103 2.387.247 2.975 4.632 2.809 4.632-.174 0-2.058-1.824-3.201-3.529-2.213m7.264-.047c-2.24 1.366-1.413 4.518 1.185 4.518.884 0 .999-.046 1.6-.647 1.919-1.92-.491-5.27-2.785-3.871m93.275.094c-2.103 1.552-1.222 4.424 1.357 4.424 1.534 0 2.442-1.125 2.253-2.794-.189-1.682-2.268-2.62-3.61-1.63m43.407-.207c-2.354 1.356-1.647 4.631 1 4.631 2.659 0 3.36-3.359.967-4.639-.46-.247-1.533-.242-1.967.008m-273.445 7.416c-2.079 1.289-1.104 4.382 1.38 4.382 1.564 0 2.497-1.201 2.245-2.886-.228-1.515-2.249-2.35-3.625-1.496m7.167-.01c-2.064 1.326-1.105 4.392 1.374 4.392 3.116 0 3.245-4.457.133-4.621-.792-.042-1.176.016-1.507.229m7.173.006c-.68.422-.979 1.075-.979 2.139 0 2.135 2.47 3.11 4 1.58 2.002-2.001-.61-5.216-3.021-3.719m6.835.366c-.973.973-.965 2.368.02 3.353 1.997 1.998 5.17-.55 3.727-2.993-.728-1.233-2.686-1.421-3.747-.36m7.167 0c-.731.731-.894 1.893-.4 2.848 1.095 2.118 4.586 1.226 4.586-1.172 0-2.076-2.704-3.158-4.186-1.676m7.304-.133c-1.078.921-1.02 2.869.111 3.732 1.553 1.184 3.938.025 3.938-1.913 0-2.011-2.505-3.137-4.049-1.819m7.135.077c-1.578 1.625-.585 4.076 1.653 4.076 2.245 0 3.252-2.451 1.674-4.076-.542-.558-.635-.591-1.663-.591s-1.121.033-1.664.591m7.197-.007c-1.036 1.006-1.041 2.459-.011 3.488 1.699 1.7 4.439.078 3.982-2.357-.319-1.7-2.69-2.375-3.971-1.131m50.303.007c-1.578 1.625-.585 4.076 1.653 4.076 2.245 0 3.252-2.451 1.674-4.076-.542-.558-.635-.591-1.663-.591s-1.121.033-1.664.591m7.197-.007c-1.036 1.006-1.041 2.459-.011 3.488 1.699 1.7 4.439.078 3.982-2.357-.319-1.7-2.69-2.375-3.971-1.131m7.522-.299c-2.086 1.294-1.104 4.382 1.395 4.382 1.569 0 2.485-1.185 2.23-2.886-.228-1.515-2.249-2.35-3.625-1.496m7.167 0c-2.072 1.285-1.101 4.382 1.374 4.382 2.168 0 3.204-2.489 1.673-4.02-.748-.748-2.155-.916-3.047-.362m7.173-.004c-.68.422-.979 1.075-.979 2.139 0 2.135 2.47 3.11 4 1.58 2.002-2.001-.61-5.216-3.021-3.719m121.835.366c-.973.973-.965 2.368.02 3.353 1.997 1.998 5.17-.55 3.727-2.993-.728-1.233-2.686-1.421-3.747-.36m7.167 0c-.611.611-.647.705-.647 1.667 0 2.608 3.378 3.35 4.589 1.008 1.197-2.315-2.079-4.538-3.942-2.675m14.45-.105c-1.032.922-1.033 2.512 0 3.544 1.251 1.251 3.677.535 3.999-1.181.444-2.364-2.23-3.944-3.999-2.363m-265.625 6.909c-2.102 1.304-1.099 4.382 1.428 4.382 2.402 0 3.224-3.318 1.095-4.419-.635-.328-1.966-.308-2.523.037m6.868.357c-1.092 1.039-.917 3.014.333 3.753.921.544 2.227.372 2.993-.394 2.223-2.223-1.048-5.526-3.326-3.359m7.16.025c-1.557 1.557-.527 4 1.686 4 1.514 0 2.314-.806 2.314-2.333 0-2.22-2.433-3.234-4-1.667m7.166 0c-1.509 1.509-.528 4 1.576 4 1.176 0 1.602-.208 2.146-1.047 1.565-2.414-1.683-4.991-3.722-2.953m7.296-.115a2.42 2.42 0 0 0-.02 3.567c1.472 1.388 4.058.252 4.058-1.783 0-2.015-2.554-3.142-4.038-1.784m7.154.033c-1.031 1.001-1.04 2.481-.019 3.501 1.251 1.252 3.677.536 3.999-1.18.313-1.668-.687-2.905-2.346-2.905-.955 0-1.078.044-1.634.584m64.667 0c-1.031 1-1.039 2.429-.022 3.477 1.248 1.284 3.674.591 3.999-1.142.316-1.682-.678-2.919-2.344-2.919-.954 0-1.077.044-1.633.584m7.522-.3c-1.047.65-1.418 2.162-.789 3.216 1.462 2.449 4.936 1.044 4.405-1.782-.27-1.439-2.306-2.247-3.616-1.434m7.167 0c-.578.359-1.139 1.368-1.139 2.049 0 2.098 2.668 3.165 4.167 1.667 1.991-1.992-.627-5.205-3.028-3.716m6.868.357c-1.092 1.039-.917 3.014.333 3.753.921.544 2.227.372 2.993-.394 2.223-2.223-1.048-5.526-3.326-3.359m108.132-.357c-.578.359-1.139 1.368-1.139 2.049 0 2.098 2.668 3.165 4.167 1.667 1.991-1.992-.627-5.205-3.028-3.716m6.868.357c-1.092 1.039-.917 3.014.333 3.753.921.544 2.227.372 2.993-.394 2.223-2.223-1.048-5.526-3.326-3.359m7.16.025c-1.557 1.557-.527 4 1.686 4 1.514 0 2.314-.806 2.314-2.333 0-2.22-2.433-3.234-4-1.667m7.166 0c-1.509 1.509-.528 4 1.576 4 1.176 0 1.602-.208 2.146-1.047 1.565-2.414-1.683-4.991-3.722-2.953m7.392-.204c-1.815 1.57-.844 4.205 1.551 4.204 2.333 0 3.239-2.748 1.412-4.285-.681-.574-2.255-.531-2.963.081m7.275-.105c-1.923 1.598-.999 4.309 1.467 4.309 2.203 0 3.184-2.528 1.583-4.082-.752-.731-2.305-.846-3.05-.227m7.167 0c-1.928 1.602-.999 4.309 1.478 4.309 2.205 0 3.177-2.524 1.572-4.082-.752-.731-2.305-.846-3.05-.227m-266.16 7.45c-1.092 1.039-.917 3.015.333 3.753.915.541 2.266.373 3.013-.374 2.216-2.216-1.075-5.539-3.346-3.379m7.16.026c-1.555 1.555-.54 4 1.66 4 1.542 0 2.34-.795 2.34-2.333 0-2.221-2.433-3.234-4-1.667m7.166 0c-1.507 1.507-.541 4 1.55 4 1.202 0 1.625-.204 2.172-1.047 1.565-2.414-1.684-4.991-3.722-2.953m7.296-.115c-1.035.948-1.057 2.553-.049 3.561 1.416 1.416 4.087.262 4.087-1.765 0-2.021-2.553-3.156-4.038-1.796m7.154.033c-1.017.987-1.037 2.446-.048 3.494 1.218 1.291 3.702.563 4.03-1.181.441-2.354-2.3-3.947-3.982-2.313m64.926-.21c-.897.627-1.275 1.824-.894 2.827.823 2.165 4.193 1.953 4.614-.29.414-2.207-1.917-3.797-3.72-2.537m7.131.062c-1.901 1.6-.98 4.23 1.482 4.23 1.767 0 2.731-1.387 2.198-3.164-.431-1.439-2.518-2.044-3.68-1.066m7.167 0c-1.914 1.61-.936 4.23 1.58 4.23 2.134 0 3.11-2.47 1.58-4-.871-.87-2.278-.973-3.16-.23m7 .204c-1.092 1.039-.917 3.015.333 3.753.915.541 2.266.373 3.013-.374 2.216-2.216-1.075-5.539-3.346-3.379m100.548.112c-.839.876-.951 1.644-.398 2.729.994 1.947 4.121 1.531 4.439-.591.383-2.555-2.288-3.968-4.041-2.138m7.166 0c-2.17 2.265 1.246 5.486 3.465 3.267 1.549-1.549.495-4.02-1.715-4.02-1.002 0-1.047.02-1.75.753m7.286-.112c-1.092 1.039-.917 3.015.333 3.753.915.541 2.266.373 3.013-.374 2.216-2.216-1.075-5.539-3.346-3.379m7.16.026c-1.568 1.567-.554 4 1.666 4 1.536 0 2.334-.798 2.334-2.333 0-2.221-2.433-3.234-4-1.667m7.166 0c-1.519 1.52-.555 4 1.556 4 1.196 0 1.62-.205 2.166-1.047 1.565-2.414-1.684-4.991-3.722-2.953m7.293-.112c-.704.645-.874 1.168-.732 2.249.37 2.803 4.773 2.382 4.773-.456 0-2.023-2.553-3.156-4.041-1.793m7.151.035c-.709.688-.858 1.149-.714 2.197.343 2.507 4.235 2.598 4.702.111.442-2.359-2.301-3.946-3.988-2.308m7.386-.208c-1.906 1.68-1.023 4.285 1.451 4.285 2.261 0 3.24-2.493 1.603-4.082-.769-.747-2.321-.85-3.054-.203m-265.496 6.968c-1.742.677-1.841 3.356-.159 4.301 1.637.921 3.492-.193 3.492-2.096 0-1.808-1.612-2.874-3.333-2.205m7.083.041c-1.723.798-1.672 3.451.084 4.36 2.24 1.158 4.512-1.972 2.791-3.845-.639-.695-1.971-.933-2.875-.515m7.15.005c-1.208.547-1.642 2.454-.808 3.547 1.116 1.463 2.858 1.41 3.958-.12 1.42-1.975-.866-4.463-3.15-3.427m7.113.065c-2.098 1.158-1.173 4.536 1.242 4.539 1.685.001 2.942-1.998 2.178-3.466-.653-1.255-2.207-1.742-3.42-1.073m72.148-.157c-2.401 1.064-1.688 4.696.922 4.696 2.411 0 3.342-3.401 1.24-4.528-.562-.302-1.667-.388-2.162-.168m7.172-.019c-.388.142-1.007.753-1.266 1.249-.996 1.915 1.317 4.229 3.233 3.232 2.732-1.421.926-5.539-1.967-4.481m7.084.041c-.71.293-1.417 1.382-1.417 2.182 0 1.703 2.022 3.006 3.488 2.248 2.815-1.455.858-5.641-2.071-4.43m14.333.065c-1.723.798-1.672 3.451.084 4.36 2.24 1.158 4.512-1.972 2.791-3.845-.639-.695-1.971-.933-2.875-.515m93.482-.061c-.688.278-1.399 1.352-1.399 2.115 0 3.124 4.558 3.455 4.787.348.141-1.908-1.61-3.181-3.388-2.463m7.268-.045c-1.79.654-1.944 3.36-.248 4.361 2.189 1.291 4.697-1.444 3.223-3.514-.561-.789-2.008-1.201-2.975-.847m7.069.119c-1.615.703-1.742 3.163-.215 4.173 1.046.693 1.957.599 2.893-.298 2.033-1.948-.081-5.006-2.678-3.875m7.164-.009c-1.616.735-1.724 3.163-.186 4.16 1.09.707 1.925.626 2.867-.276 2.031-1.947-.113-5.053-2.681-3.884m7.166.001c-2.134.967-1.339 4.604 1.007 4.604 1.816 0 3.147-1.954 2.36-3.466-.621-1.193-2.124-1.701-3.367-1.138m7.121.047c-1.684.857-1.578 3.409.18 4.323 1.921 1 4.232-1.312 3.233-3.232a2.55 2.55 0 0 0-3.413-1.091m7.397-.128c-2.353 1.024-1.569 4.685 1.002 4.685 2.263 0 3.283-3.075 1.462-4.405-.485-.354-1.92-.517-2.464-.28m7.244-.011c-2.411 1.068-1.699 4.696.922 4.696 2.411 0 3.342-3.401 1.24-4.528-.562-.302-1.667-.388-2.162-.168m-266.078 7.29c-2.216 1.147-1.404 4.573 1.084 4.573 2.451 0 3.302-3.519 1.103-4.563-.717-.34-1.541-.344-2.187-.01m7.167.001c-2.182 1.132-1.357 4.572 1.097 4.572s3.294-3.517 1.091-4.562c-.719-.341-1.542-.345-2.188-.01m7.126.003c-1.65.843-1.597 3.504.086 4.307 1.137.542 2.219.237 3.08-.869 1.503-1.932-.934-4.577-3.166-3.438m79.207-.104c-1.243.517-1.795 2.271-1.079 3.43 1.285 2.079 4.274 1.407 4.454-1.002a2.415 2.415 0 0 0-3.375-2.428m7.268-.042c-1.824.723-1.988 3.318-.276 4.376 2.04 1.261 4.451-1.153 3.309-3.314-.488-.924-2.024-1.462-3.033-1.062m7.151.005c-1.279.502-1.833 2.159-1.137 3.398 1.27 2.259 4.468 1.42 4.468-1.173 0-1.691-1.735-2.851-3.331-2.225m14.248.138c-2.182 1.132-1.357 4.572 1.097 4.572s3.294-3.517 1.091-4.562c-.719-.341-1.542-.345-2.188-.01m93.601-.143c-2.468.978-1.658 4.715 1.022 4.715 2.312 0 3.173-3.452 1.13-4.528-.552-.29-1.65-.386-2.152-.187m7.167 0c-2.429.962-1.65 4.715.978 4.715 2.451 0 3.305-3.52 1.107-4.563-.553-.262-1.612-.339-2.085-.152m21.399.128c-2.204 1.161-1.409 4.587 1.064 4.587 1.766 0 3.064-1.969 2.285-3.467-.616-1.183-2.214-1.718-3.349-1.12m7.126.018c-2.115 1.08-1.269 4.569 1.108 4.569 1.805 0 3.078-1.935 2.282-3.467-.624-1.198-2.198-1.71-3.39-1.102m7.374-.116c-2.353 1.023-1.569 4.685 1.002 4.685 3.013 0 3.222-4.59.218-4.775-.488-.031-1.037.01-1.22.09m28.618.13c-2.214 1.091-1.342 4.555 1.147 4.555 2.447 0 3.286-3.519 1.088-4.563a2.55 2.55 0 0 0-2.235.008m-294.718 7.181c-.942.632-1.317 1.237-1.317 2.124 0 2.188 2.687 3.219 4.236 1.625 1.854-1.909-.724-5.221-2.919-3.749m7.266-.031c-2.184 1.133-1.39 4.572 1.056 4.572 2.493 0 3.361-3.505 1.131-4.563-.718-.341-1.541-.344-2.187-.009m7.167 0c-2.174 1.128-1.378 4.572 1.056 4.572 2.52 0 3.386-3.493 1.132-4.563-.719-.341-1.542-.344-2.188-.009m86.417-.153c-.805.323-1.5 1.393-1.5 2.308 0 2.133 2.613 3.214 4.122 1.706 1.795-1.795-.271-4.958-2.622-4.014m7.184.01c-2.299.911-1.802 4.442.659 4.678 1.777.171 2.933-1.187 2.586-3.037-.24-1.28-1.961-2.15-3.245-1.641m143.582.135c-1.97 1.028-1.625 4.112.504 4.511 2.745.515 4.222-2.792 1.939-4.343-.718-.488-1.699-.556-2.443-.168m7.15-.003c-1.665.873-1.625 3.525.065 4.346 2.021.982 4.306-1.266 3.285-3.23-.616-1.183-2.209-1.714-3.35-1.116m28.541.171c-1.884 1.28-1.248 4.122.978 4.373 1.009.113 1.438-.037 2.127-.746 1.985-2.044-.744-5.232-3.105-3.627m-287.339 7.067c-2.445 1.567-1.071 4.977 1.788 4.441 2.157-.405 2.461-3.49.443-4.484-.723-.356-1.636-.338-2.231.043m7.27-.023c-1.928 1.039-1.551 4.072.556 4.467 2.744.515 4.164-3.187 1.704-4.442-.775-.395-1.558-.404-2.26-.025m280.148.086c-.754.503-1.201 1.246-1.202 1.998-.004 2.237 2.671 3.292 4.242 1.673 1.924-1.98-.746-5.204-3.04-3.671m-287.35 7.096c-2.69 1.433-.88 5.324 2.031 4.363 1.573-.519 2.027-3.069.715-4.011-1.044-.749-1.815-.848-2.746-.352m7.118.048c-1.848 1.072-1.401 4.094.65 4.402 1.687.253 2.879-.684 2.879-2.261 0-1.986-1.855-3.111-3.529-2.141m-7.161 7.164c-2.242 1.3-1.388 4.474 1.203 4.474.929 0 1.026-.039 1.654-.667 1.97-1.971-.454-5.201-2.857-3.807m7.173-.004c-.836.485-1.15 1.093-1.15 2.231 0 2.135 2.47 3.11 4 1.58 1.974-1.973-.444-5.206-2.85-3.811m-.171 7.258c-.68.422-.979 1.075-.979 2.14 0 2.134 2.47 3.11 4 1.58 2.002-2.002-.61-5.216-3.021-3.72M202.399 93.65c-2.051 1.251-1.395 4.293.964 4.471 1.664.125 2.717-.907 2.595-2.542-.133-1.786-2.071-2.836-3.559-1.929m-150.916 7.206c-1.876 1.088-1.445 4.096.631 4.407 1.694.254 2.886-.679 2.886-2.26 0-1.979-1.855-3.111-3.517-2.147m129.419-.041c-1.317.803-1.657 2.309-.801 3.544 1.305 1.882 4.399.86 4.399-1.453 0-1.731-2.145-2.977-3.598-2.091m-129.59 14.466c-.68.422-.979 1.075-.979 2.139 0 2.135 2.47 3.11 4 1.58 2.002-2.001-.61-5.216-3.021-3.719"/></g></svg>
