<?xml version="1.0" encoding="utf-8"?>
<svg viewBox="-858.2581 839.149 265.729 302.989" xmlns="http://www.w3.org/2000/svg">
  <defs>
    <linearGradient gradientUnits="userSpaceOnUse" x1="-723.485" y1="840.529" x2="-723.485" y2="1143.193" id="gradient-2" spreadMethod="pad" gradientTransform="matrix(1.006344, 0, 0, 1.002189, 3.538456, -3.336658)">
      <stop offset="0" style="stop-color: rgb(35.686% 12.941% 71.373%)"/>
      <stop offset="1" style="stop-color: rgb(21.49% 0% 58.388%)"/>
    </linearGradient>
    <linearGradient gradientUnits="userSpaceOnUse" x1="-167.605" y1="839.034" x2="-167.605" y2="1141.698" id="gradient-1" gradientTransform="matrix(1.006344, 0, 0, 1.002189, -555.868847, -1.839253)">
    </linearGradient>
  </defs>
  <path d="M -718.687 839.155 C -716.737 842.48 -717.06 846.602 -716.987 850.299 C -716.88 855.172 -716.348 861.638 -712.68 865.284 C -710.322 867.368 -691.82 860.621 -690.212 859.68 C -689.312 859.155 -685.038 856.922 -683.844 856.243 C -680.797 854.514 -677.705 852.873 -674.586 851.276 C -674.473 851.217 -660.761 843.952 -653.406 843.878 C -643.194 843.775 -642.458 844.543 -641.383 845.25 C -641.132 847.836 -642.471 850.383 -643.284 852.816 C -643.465 853.36 -644.338 856.071 -644.604 856.879 C -645.314 859.051 -646.003 861.229 -646.689 863.408 C -646.908 864.096 -647.126 864.785 -647.344 865.473 C -648.682 869.666 -649.994 873.882 -650.985 878.172 C -651.028 878.353 -651.028 878.353 -651.072 878.537 C -653.436 888.643 -654.532 898.972 -654.36 909.35 C -654.355 909.686 -654.35 910.023 -654.346 910.36 C -654.154 923.951 -652.573 937.493 -632.961 1024.082 C -632.854 1024.44 -632.745 1024.798 -632.638 1025.157 C -630.713 1031.527 -628.776 1037.894 -626.704 1044.217 C -626.523 1044.774 -626.339 1045.331 -626.158 1045.886 C -624.658 1050.48 -623.142 1055.065 -621.561 1059.631 C -621.232 1060.58 -620.906 1061.531 -620.582 1062.482 C -615.735 1076.699 -610.544 1090.791 -597.7 1124.026 C -597.629 1124.202 -597.557 1124.38 -597.485 1124.563 C -597.074 1125.589 -596.661 1126.612 -596.243 1127.635 C -596.095 1127.997 -595.95 1128.359 -595.804 1128.722 C -595.576 1129.286 -595.346 1129.851 -595.116 1130.413 C -595.047 1130.586 -594.979 1130.759 -594.908 1130.936 C -594.504 1131.938 -592.605 1136.749 -592.556 1136.902 C -592.193 1137.986 -595.602 1136.772 -596.271 1136.675 C -597.194 1136.508 -598.001 1136.179 -598.857 1135.805 C -599.021 1135.735 -600.432 1135.129 -600.968 1134.896 C -601.349 1134.734 -603.492 1133.815 -604.184 1133.519 C -606.144 1132.676 -608.11 1131.843 -610.077 1131.01 C -610.79 1130.709 -612.47 1129.997 -612.733 1129.886 C -613.788 1129.437 -614.845 1128.987 -615.899 1128.532 C -619.374 1127.035 -622.888 1125.666 -626.437 1124.355 C -627.252 1124.053 -628.062 1123.746 -628.872 1123.432 C -638.671 1119.619 -649.329 1116.379 -659.827 1115.259 C -659.998 1115.241 -660.168 1115.223 -660.345 1115.205 C -663.099 1114.947 -665.768 1115.121 -668.503 1115.486 C -668.662 1115.507 -668.82 1115.528 -668.984 1115.548 C -671.576 1115.894 -674.025 1116.382 -676.482 1117.295 C -676.648 1117.357 -676.815 1117.419 -676.985 1117.481 C -680.403 1118.756 -693.105 1125.633 -695.886 1127.501 C -696.215 1127.721 -696.544 1127.941 -696.874 1128.157 C -696.999 1128.241 -699.614 1129.809 -700.841 1130.445 C -701.442 1130.758 -704.832 1132.547 -705.745 1133.047 C -707.248 1133.87 -708.764 1134.672 -710.279 1135.473 C -711.595 1136.166 -712.908 1136.863 -714.218 1137.566 C -714.566 1137.751 -714.912 1137.936 -715.259 1138.122 C -716.036 1138.536 -716.809 1138.955 -717.559 1139.415 C -718.497 1139.935 -721.386 1140.605 -721.685 1140.661 C -722.184 1140.754 -722.682 1140.851 -723.181 1140.948 C -724.103 1141.127 -726.706 1141.613 -727.084 1141.686 C -730.574 1142.363 -737.899 1142.085 -738.086 1142.063 C -744.863 1141.241 -751.252 1139.277 -757.094 1135.713 C -757.197 1135.651 -759.113 1134.394 -759.84 1133.621 C -760.212 1133.235 -762.577 1131.163 -763.351 1130.467 C -763.93 1129.945 -764.513 1129.424 -765.107 1128.915 C -765.843 1128.276 -766.555 1127.606 -767.268 1126.939 C -767.953 1126.301 -768.644 1125.673 -769.341 1125.051 C -769.903 1124.547 -772.164 1122.467 -772.743 1121.94 C -773.321 1121.411 -773.898 1120.884 -774.475 1120.353 C -775.821 1119.112 -777.169 1117.886 -778.596 1116.736 C -779.022 1116.387 -779.438 1116.033 -779.855 1115.677 C -780.326 1115.269 -781.408 1114.353 -781.539 1114.241 C -784.532 1111.701 -787.973 1109.608 -791.394 1107.693 C -791.551 1107.606 -798.911 1103.819 -802.606 1102.362 C -802.76 1102.301 -802.76 1102.301 -802.918 1102.238 C -803.657 1101.948 -804.4 1101.669 -805.146 1101.397 C -805.26 1101.356 -805.377 1101.314 -805.497 1101.269 C -808.03 1100.36 -810.631 1099.72 -813.243 1099.079 C -813.696 1098.97 -814.148 1098.857 -814.601 1098.744 C -815.046 1098.634 -815.49 1098.525 -815.935 1098.414 C -816.241 1098.34 -816.548 1098.263 -816.854 1098.187 C -819.034 1097.654 -821.194 1097.248 -823.419 1096.979 C -823.656 1096.951 -823.894 1096.922 -824.131 1096.893 C -824.906 1096.797 -825.68 1096.702 -826.454 1096.611 C -826.588 1096.595 -826.722 1096.579 -826.859 1096.561 C -828.138 1096.409 -829.417 1096.256 -830.696 1096.105 C -832.154 1095.933 -833.613 1095.758 -835.07 1095.578 C -842.819 1094.619 -850.441 1094.066 -858.254 1094.157 C -858.255 1093.511 -858.256 1092.867 -858.257 1092.221 C -858.257 1092.04 -858.258 1091.86 -858.258 1091.673 C -858.26 1089.985 -858.213 1088.3 -858.135 1086.611 C -858.128 1086.46 -858.122 1086.309 -858.115 1086.153 C -857.435 1071.693 -853.482 1057.387 -833.459 989.927 C -832.782 987.874 -832.117 985.82 -831.463 983.761 C -829.169 976.539 -826.69 969.375 -824.113 962.249 C -824.061 962.108 -824.011 961.966 -823.958 961.819 C -822.607 958.086 -821.208 954.372 -819.765 950.671 C -819.5 949.988 -819.236 949.303 -818.977 948.615 C -817.665 945.151 -816.22 941.738 -814.786 938.322 C -814.726 938.179 -814.666 938.035 -814.605 937.886 C -813.043 934.172 -811.434 930.484 -809.728 926.832 C -809.654 926.67 -809.654 926.67 -809.576 926.504 C -805.387 917.532 -805.387 917.532 -803.308 913.695 C -803.05 913.22 -802.799 912.744 -802.546 912.267 C -801.259 909.846 -799.914 907.464 -798.506 905.109 C -798.425 904.971 -798.342 904.832 -798.256 904.687 C -794.818 898.909 -791.139 893.236 -786.751 888.124 C -786.362 887.669 -781.607 882.091 -780.977 881.417 C -780.49 880.893 -780.029 880.353 -779.579 879.796 C -779.103 879.206 -778.61 878.666 -778.066 878.138 C -777.685 877.763 -760.32 861.118 -756.454 857.935 C -751.499 853.855 -743.881 849.574 -742.693 848.985 C -741.468 848.376 -740.247 847.764 -739.035 847.123 C -736.03 845.534 -729.685 842.695 -729.505 842.621 C -729.385 842.57 -719.034 838.982 -718.687 839.155 Z" style="stroke: url('#gradient-1'); fill: url('#gradient-2'); paint-order: stroke; fill-opacity: 0.97; stroke-width: 0px; stroke-linecap: square; stroke-miterlimit: 1;" transform="matrix(1, 0, 0, 1, 0, 5.684341886080802e-14)"/>
</svg>
