<svg viewBox="584.836 1.9351 229.537 229.1299" width="229.537px" height="229.13px" preserveAspectRatio="none" xmlns="http://www.w3.org/2000/svg"><title>Simplex</title><path fill="#94a3b8" d="M 641.628 136.08 L 679.309 173.782 L 698.513 154.567 L 698.506 154.561 L 736.917 116.134 L 699.236 78.437 L 699.243 78.433 L 680.404 59.583 L 641.993 98.014 L 641.99 98.01 L 680.401 59.583 L 642.725 21.881 L 661.929 2.665 L 699.605 40.367 L 738.016 1.935 L 756.855 20.786 L 718.443 59.218 L 756.121 96.918 L 794.533 58.488 L 813.373 77.338 L 774.959 115.768 L 812.643 153.471 L 793.439 172.687 L 755.756 134.984 L 717.348 173.415 L 755.031 211.119 L 735.827 230.335 L 698.144 192.63 L 659.74 231.065 L 640.901 212.214 L 679.306 173.78 L 641.625 136.083 L 641.628 136.08 Z" style=""/><path fill="#94a3b8" d="M 604.77 59.765 L 642.446 97.466 L 680.856 59.035 L 699.696 77.886 L 661.285 116.317 L 698.966 154.019 C 701.013 157.529 680.008 173.656 679.762 173.235 L 642.081 135.532 L 603.675 173.965 L 584.836 155.114 L 623.243 116.682 L 585.566 78.981 L 604.77 59.765 Z" style=""/>
</svg>
